<svg version="1.1" xmlns="http://www.w3.org/2000/svg" viewBox="0 0 534.3999633789062 368.8000183105469"
  width="1603.1998901367188" height="1106.4000549316406" preserveAspectRatio="none">
  <!-- svg-source:excalidraw -->

  <defs>
    <style class="style-fonts">

    </style>

  </defs>
  <g stroke-linecap="round" transform="translate(10 10) rotate(0 257.1999816894531 174.40000915527344)">
    <path
      d="M32 0 C145.44 -4.83, 255.69 -1.54, 482.4 0 M32 0 C192.73 -2.81, 351.25 -2.46, 482.4 0 M482.4 0 C501.81 -3.76, 511.49 7.87, 514.4 32 M482.4 0 C506.25 -4.37, 511.77 12.37, 514.4 32 M514.4 32 C515.93 102.43, 516.85 172.52, 514.4 316.8 M514.4 32 C513.73 123.85, 513.29 214.86, 514.4 316.8 M514.4 316.8 C518.35 338.31, 500.55 350.28, 482.4 348.8 M514.4 316.8 C512.61 339.59, 502.19 351.52, 482.4 348.8 M482.4 348.8 C321.78 353.3, 165.35 353.43, 32 348.8 M482.4 348.8 C319.01 350.74, 158.28 350.8, 32 348.8 M32 348.8 C12.02 347.61, -1.08 339.53, 0 316.8 M32 348.8 C10.96 345.65, -1.97 333.79, 0 316.8 M0 316.8 C-3.22 248.83, -2.37 182.54, 0 32 M0 316.8 C1.48 258.69, 1.52 202.64, 0 32 M0 32 C-0.35 8.95, 12.4 1.7, 32 0 M0 32 C-3.7 10.32, 8.88 1.63, 32 0"
      stroke="#000000" stroke-width="1.4" fill="none" ></path>
  </g>
</svg>