<svg version="1.1" xmlns="http://www.w3.org/2000/svg" viewBox="0 0 474.91263059808114 350.12739361557686"
  width="1424.7378917942433" height="1050.3821808467305" filter="invert(93%) hue-rotate(180deg)">
  <!-- svg-source:excalidraw -->

  <defs>
    <style class="style-fonts">

    </style>

  </defs>
  <g stroke-linecap="round" transform="translate(10 10) rotate(0 227.45631529904057 165.06369680778843)">
    <path
      d="M7.86 8.16 C7.86 8.16, 7.86 8.16, 7.86 8.16 M7.86 8.16 C7.86 8.16, 7.86 8.16, 7.86 8.16 M1.43 27.75 C6.69 16.1, 10.9 11.33, 24.4 1.33 M1.43 27.75 C7.97 20.15, 12.61 14.43, 24.4 1.33 M0.26 41.3 C6.52 29.4, 17.67 15.71, 36.34 -0.21 M0.26 41.3 C9.33 32.76, 17.87 22.58, 36.34 -0.21 M0.39 53.34 C10.36 40.5, 24.34 20.21, 46.97 -0.25 M0.39 53.34 C16.69 34.54, 34.04 14.99, 46.97 -0.25 M0.52 65.38 C13.55 46.14, 29.7 24.81, 57.6 -0.28 M0.52 65.38 C12.99 51.15, 24.13 38.3, 57.6 -0.28 M0 78.17 C27.02 51.98, 51.83 17.74, 67.57 0.44 M0 78.17 C24.8 53.77, 43.53 25.91, 67.57 0.44 M0.13 90.22 C19.55 73.02, 41.04 50.96, 78.2 0.41 M0.13 90.22 C23.64 66.15, 45.33 41.84, 78.2 0.41 M0.26 102.26 C24.85 80.68, 40.75 48.36, 88.83 0.37 M0.26 102.26 C23.3 72.87, 51.32 43.46, 88.83 0.37 M0.4 114.3 C28.54 76.13, 60.81 42.97, 99.46 0.34 M0.4 114.3 C23.11 89.29, 49.03 57.88, 99.46 0.34 M0.53 126.34 C35.73 88.38, 64.55 49.56, 110.09 0.3 M0.53 126.34 C32.48 85.92, 66.54 45.11, 110.09 0.3 M0.01 139.13 C33.43 99.11, 67.16 68.41, 120.72 0.27 M0.01 139.13 C34.54 99.55, 65.98 64.68, 120.72 0.27 M0.14 151.17 C44.52 102.43, 86.95 54.15, 131.35 0.23 M0.14 151.17 C48.02 101.21, 93.08 48.03, 131.35 0.23 M0.27 163.22 C31.92 123.91, 65.7 89.26, 141.98 0.2 M0.27 163.22 C36.21 121.11, 77 74.52, 141.98 0.2 M0.41 175.26 C41.29 127.66, 84.08 73.22, 152.61 0.16 M0.41 175.26 C50.81 117.38, 102.43 62.07, 152.61 0.16 M0.54 187.3 C42.92 136.04, 90.52 81.2, 163.24 0.13 M0.54 187.3 C42.2 137.52, 81.53 90.59, 163.24 0.13 M0.02 200.09 C47.93 138.22, 99.02 83, 173.87 0.09 M0.02 200.09 C48.65 148.23, 98.65 91.55, 173.87 0.09 M0.15 212.13 C54.29 141.29, 115.83 76.83, 184.5 0.06 M0.15 212.13 C67.14 130.87, 138.08 50.53, 184.5 0.06 M0.28 224.17 C54.55 164.49, 107.38 102.86, 195.13 0.03 M0.28 224.17 C71.5 143.16, 143.96 59.97, 195.13 0.03 M0.42 236.22 C66.87 155.19, 138.71 74.34, 205.76 -0.01 M0.42 236.22 C69.91 154.61, 141.98 73.83, 205.76 -0.01 M-0.11 249.01 C58.25 181.45, 119.78 110.2, 216.39 -0.04 M-0.11 249.01 C68.44 165.85, 139.37 84.54, 216.39 -0.04 M0.03 261.05 C82.64 163.77, 166.34 71.15, 227.02 -0.08 M0.03 261.05 C79.88 162.6, 164 67.95, 227.02 -0.08 M0.16 273.09 C81.18 182.04, 163.74 88.95, 237.65 -0.11 M0.16 273.09 C88.54 174.29, 176.9 73.97, 237.65 -0.11 M0.29 285.13 C87.25 188.95, 169.98 87.76, 248.28 -0.15 M0.29 285.13 C100.2 171.28, 196.97 59.34, 248.28 -0.15 M0.43 297.17 C67.82 221.09, 138.64 139.79, 258.91 -0.18 M0.43 297.17 C69.28 221.47, 139.51 141.95, 258.91 -0.18 M1.87 307.71 C62.75 232.69, 126.29 162.46, 269.54 -0.22 M1.87 307.71 C81.57 214.44, 163.87 119.87, 269.54 -0.22 M5.29 315.97 C72.49 242.81, 134.29 169.77, 280.17 -0.25 M5.29 315.97 C92.98 216.17, 180.2 114.29, 280.17 -0.25 M10.01 322.73 C104.35 214.39, 196.05 107.46, 290.8 -0.28 M10.01 322.73 C101.41 218.83, 193.77 114.41, 290.8 -0.28 M17.36 326.47 C119.88 207.83, 222.6 89.01, 300.78 0.44 M17.36 326.47 C119.97 209.23, 220.44 94.17, 300.78 0.44 M26.02 328.7 C117.14 225.86, 204.8 120.1, 311.41 0.4 M26.02 328.7 C140.25 198.05, 251.21 68.91, 311.41 0.4 M35.34 330.17 C145.68 203.75, 255.92 75.2, 322.04 0.37 M35.34 330.17 C134.65 216.7, 232.67 105.35, 322.04 0.37 M45.97 330.14 C113.61 253.19, 180.5 175.95, 332.67 0.33 M45.97 330.14 C151.44 207.13, 262.73 81.01, 332.67 0.33 M55.95 330.86 C165.99 203.53, 273.38 78.11, 343.3 0.3 M55.95 330.86 C155.9 211.93, 258.5 95.06, 343.3 0.3 M66.58 330.83 C145.25 238.28, 227.63 145.45, 353.93 0.26 M66.58 330.83 C152.28 228.51, 239.18 129.58, 353.93 0.26 M77.21 330.79 C187.63 209.02, 293.17 85.05, 364.56 0.23 M77.21 330.79 C148.3 252.84, 214.36 175.38, 364.56 0.23 M87.84 330.76 C163.16 247.66, 237.94 158.92, 375.19 0.19 M87.84 330.76 C175.18 234.42, 259.83 136.5, 375.19 0.19 M98.47 330.72 C156.79 264.83, 218.13 194.94, 385.82 0.16 M98.47 330.72 C194.69 222.1, 287.05 114.22, 385.82 0.16 M109.1 330.69 C196.61 226.53, 287.24 119.56, 396.45 0.12 M109.1 330.69 C173.03 258.52, 239.35 183.76, 396.45 0.12 M119.73 330.65 C189.84 250.48, 260.22 170.02, 407.08 0.09 M119.73 330.65 C211.52 224.26, 304.62 118.59, 407.08 0.09 M130.36 330.62 C235.22 214.08, 341.08 93.14, 417.71 0.06 M130.36 330.62 C219.62 229.83, 306.27 129.4, 417.71 0.06 M140.99 330.58 C213.02 251.13, 283.95 170.93, 427.68 0.78 M140.99 330.58 C203.74 257.86, 268.56 184.25, 427.68 0.78 M151.62 330.55 C233.16 233.8, 315.78 140.95, 436.35 3.01 M151.62 330.55 C224.89 247.97, 295.94 165.83, 436.35 3.01 M162.25 330.52 C259.72 221.82, 357.74 111.59, 444.35 5.99 M162.25 330.52 C219.51 264.48, 277.01 199.03, 444.35 5.99 M172.88 330.48 C270.89 217.2, 367.25 107.12, 449.73 11.99 M172.88 330.48 C265.08 219.84, 359.8 114.24, 449.73 11.99 M183.51 330.45 C237.19 265.25, 294.02 197.34, 452.49 21.02 M183.51 330.45 C266.86 233.93, 353.59 134.68, 452.49 21.02 M194.14 330.41 C290.73 218.13, 389.76 104.28, 454.59 30.79 M194.14 330.41 C286.85 223.83, 379.28 117.19, 454.59 30.79 M204.77 330.38 C284.69 239.92, 364 147.39, 455.38 42.08 M204.77 330.38 C303.59 218.8, 399.18 107.07, 455.38 42.08 M215.4 330.34 C298.77 229.57, 385.63 132.66, 455.51 54.12 M215.4 330.34 C271.05 261.88, 326.93 198.23, 455.51 54.12 M226.03 330.31 C296.8 252.39, 365.62 169.68, 455.65 66.16 M226.03 330.31 C308.43 233.18, 390.9 138.98, 455.65 66.16 M236.66 330.27 C292.58 268.15, 351.92 204.3, 455.78 78.2 M236.66 330.27 C285.78 274.63, 336.17 216.42, 455.78 78.2 M247.29 330.24 C316.35 246.12, 388.55 167.79, 455.91 90.24 M247.29 330.24 C310.85 260.38, 373.76 188.07, 455.91 90.24 M257.92 330.2 C299.2 283.84, 340.32 237.86, 455.39 103.04 M257.92 330.2 C321.18 254.58, 386.15 179.86, 455.39 103.04 M268.55 330.17 C305.97 286.91, 342.88 237.95, 455.52 115.08 M268.55 330.17 C307.09 287.16, 346.04 241.73, 455.52 115.08 M279.18 330.14 C329.47 268.01, 386.6 207.61, 455.66 127.12 M279.18 330.14 C326.24 280.15, 374.47 227.88, 455.66 127.12 M289.15 330.86 C324.37 286.8, 368.08 240.98, 455.79 139.16 M289.15 330.86 C327.71 288.51, 368.79 241.61, 455.79 139.16 M299.78 330.82 C342.62 289.12, 375.46 245.35, 455.92 151.2 M299.78 330.82 C340.03 283.84, 382.45 237.76, 455.92 151.2 M310.41 330.79 C358.79 278.58, 409.48 216.54, 455.4 164 M310.41 330.79 C344.02 290.83, 376.76 252.4, 455.4 164 M321.04 330.75 C352.41 296.85, 381.8 264.24, 455.53 176.04 M321.04 330.75 C365.58 280.28, 409.7 228.97, 455.53 176.04 M331.67 330.72 C383.22 272.6, 429.2 221.23, 455.67 188.08 M331.67 330.72 C355.78 303.24, 381.05 276.07, 455.67 188.08 M342.3 330.68 C370.58 294.4, 400.22 263.92, 455.8 200.12 M342.3 330.68 C383.04 281.88, 425.18 235.18, 455.8 200.12 M352.93 330.65 C373.49 305.69, 393.07 280.55, 455.93 212.16 M352.93 330.65 C382.69 295.02, 412.86 261.53, 455.93 212.16 M363.56 330.61 C392.94 290.57, 425.35 259.92, 455.41 224.96 M363.56 330.61 C383.3 308.89, 404.76 283.31, 455.41 224.96 M374.19 330.58 C391.95 309.68, 413.21 290.83, 455.54 237 M374.19 330.58 C400.83 303.35, 429.75 272.09, 455.54 237 M384.82 330.55 C396.07 309.92, 411.9 291.86, 455.68 249.04 M384.82 330.55 C404.8 309.78, 423.36 288.46, 455.68 249.04 M395.45 330.51 C404.51 317.73, 416.67 301.9, 455.81 261.08 M395.45 330.51 C415.25 309.47, 434.75 283.71, 455.81 261.08 M406.08 330.48 C428.13 310.78, 445.39 288.84, 455.94 273.12 M406.08 330.48 C416.25 316.85, 428.44 305.26, 455.94 273.12 M416.71 330.44 C431.82 313.09, 441.88 300.1, 455.42 285.91 M416.71 330.44 C424.89 321.33, 433.98 310.25, 455.42 285.91 M428 329.65 C432.54 318.55, 441.34 307.32, 454.9 298.71 M428 329.65 C437.14 320.29, 445.76 312.75, 454.9 298.71 M441.25 326.6 C441.56 322.09, 444.67 322.45, 451.09 315.28 M441.25 326.6 C442.88 324.42, 446.61 321.98, 451.09 315.28 M12.45 325.58 C12.45 325.58, 12.45 325.58, 12.45 325.58 M12.45 325.58 C12.45 325.58, 12.45 325.58, 12.45 325.58 M29.02 329.39 C23.14 325.59, 12.8 319.73, 1.85 305.77 M29.02 329.39 C20.7 321.7, 11.13 313.56, 1.85 305.77 M41.82 329.91 C24.74 314.6, 16.5 304.45, 0.31 293.83 M41.82 329.91 C29.26 318.45, 16.51 309.84, 0.31 293.83 M53.86 329.78 C44.59 315.15, 29.8 309.48, 0.27 283.2 M53.86 329.78 C41.2 317.45, 25.03 305.6, 0.27 283.2 M65.9 329.64 C51.18 315.01, 36.48 309.61, 0.24 272.57 M65.9 329.64 C42.93 307.49, 15.78 287.27, 0.24 272.57 M77.94 329.51 C56.92 309.08, 29.44 293.53, 0.2 261.94 M77.94 329.51 C53.97 308.84, 33.79 289.21, 0.2 261.94 M89.98 329.38 C66.58 304.94, 36.56 282.16, 0.17 251.31 M89.98 329.38 C62.74 306.62, 31.29 280.2, 0.17 251.31 M102.77 329.9 C81.64 308.2, 58.77 291.13, 0.13 240.68 M102.77 329.9 C70.17 300.79, 36.05 273.65, 0.13 240.68 M114.82 329.77 C91.55 309.9, 63.25 280.88, 0.1 230.05 M114.82 329.77 C89.48 310.31, 67.35 287.19, 0.1 230.05 M126.86 329.64 C78.64 287.57, 32.34 255.1, 0.07 219.42 M126.86 329.64 C85.01 295.68, 44.47 262.3, 0.07 219.42 M138.9 329.5 C84.92 287.01, 37.74 240.84, 0.03 208.79 M138.9 329.5 C100.22 293.46, 57.17 255.95, 0.03 208.79 M150.94 329.37 C91.38 276.79, 39.76 227.86, 0 198.16 M150.94 329.37 C100.07 284.38, 47.61 238.94, 0 198.16 M163.73 329.89 C102.62 277.99, 37.15 222.57, -0.04 187.53 M163.73 329.89 C131.24 296.6, 94.77 267, -0.04 187.53 M175.77 329.76 C132.02 286.85, 77.66 243.8, -0.07 176.9 M175.77 329.76 C129.11 287.39, 81.53 247.94, -0.07 176.9 M187.82 329.63 C133.69 280.26, 73.38 231.92, 0.65 166.92 M187.82 329.63 C126.8 276.26, 62.19 220.2, 0.65 166.92 M199.86 329.49 C129.37 265.2, 57.85 200.42, 0.61 156.29 M199.86 329.49 C134.25 272.41, 68.25 215.32, 0.61 156.29 M211.9 329.36 C158.26 284.72, 108.63 235.75, 0.58 145.66 M211.9 329.36 C159.54 282.82, 104.25 235.56, 0.58 145.66 M224.69 329.88 C153.66 269.02, 87.44 212.73, 0.54 135.03 M224.69 329.88 C154.69 269.17, 86.2 209.46, 0.54 135.03 M236.73 329.75 C167.22 269.8, 94.98 209.53, 0.51 124.4 M236.73 329.75 C169.69 269.7, 104.4 212.07, 0.51 124.4 M248.77 329.62 C173.05 264.03, 102.55 202.21, 0.48 113.77 M248.77 329.62 C153.57 245.31, 58.14 162.53, 0.48 113.77 M260.82 329.48 C192.76 267.75, 125.82 207.07, 0.44 103.14 M260.82 329.48 C179.96 257.65, 96.9 185.92, 0.44 103.14 M272.86 329.35 C205.93 268.73, 137.59 214, 0.41 92.51 M272.86 329.35 C193.92 262.26, 116.29 194.2, 0.41 92.51 M285.65 329.87 C206.23 263.37, 128.32 192.68, 0.37 81.88 M285.65 329.87 C214.45 269.36, 146.76 208.41, 0.37 81.88 M297.69 329.74 C235.33 275.67, 175.35 223.3, 0.34 71.25 M297.69 329.74 C202.97 250.04, 108.26 165.7, 0.34 71.25 M309.73 329.61 C246.87 276.46, 180.65 220.43, 0.3 60.62 M309.73 329.61 C223.92 251.57, 134.87 175.02, 0.3 60.62 M321.77 329.47 C205.43 227.55, 87.87 125.29, 0.27 49.99 M321.77 329.47 C206.71 226.87, 92.8 128.57, 0.27 49.99 M334.57 330 C253.27 256.15, 169.9 183.75, 0.23 39.36 M334.57 330 C250.97 254.85, 165.7 179.73, 0.23 39.36 M346.61 329.86 C265.44 255.88, 184.68 187.79, 0.95 29.39 M346.61 329.86 C265.4 256.36, 185.31 185.98, 0.95 29.39 M358.65 329.73 C240.41 224.8, 124 125.77, 2.43 20.07 M358.65 329.73 C244.92 228.26, 127.45 126.72, 2.43 20.07 M370.69 329.6 C275.68 247.32, 181.23 165.07, 5.41 12.06 M370.69 329.6 C233.53 211.8, 98.68 94.29, 5.41 12.06 M382.73 329.46 C269.24 229.7, 151.64 128.5, 10.66 6.03 M382.73 329.46 C294.07 249.38, 202.49 170.17, 10.66 6.03 M395.53 329.99 C315.08 257.77, 231.81 183.58, 18.17 1.96 M395.53 329.99 C271.01 224.12, 145.28 114.03, 18.17 1.96 M407.57 329.85 C259.13 204.52, 111.12 75.02, 28.71 0.51 M407.57 329.85 C286.66 222.47, 164.21 116.47, 28.71 0.51 M419.61 329.72 C333.87 253.26, 252.4 180.98, 39.99 -0.28 M419.61 329.72 C315.95 237.76, 211.51 146.45, 39.99 -0.28 M430.14 328.27 C320.19 235.88, 213.1 143.08, 52.03 -0.41 M430.14 328.27 C339.23 245.33, 247.35 166.3, 52.03 -0.41 M439.92 326.17 C326.24 227.47, 216.33 133.26, 64.07 -0.54 M439.92 326.17 C323.11 222.53, 205.21 120.69, 64.07 -0.54 M446.68 321.45 C351.2 244.25, 259.5 160.23, 76.87 -0.02 M446.68 321.45 C354.07 240.59, 262.34 159.87, 76.87 -0.02 M451.17 314.75 C374.08 249.57, 294.17 178.19, 88.91 -0.15 M451.17 314.75 C331.97 212.11, 211.44 108.88, 88.91 -0.15 M453.4 306.09 C356.04 220.68, 260.73 133.92, 100.95 -0.29 M453.4 306.09 C325.47 195.44, 196.26 80.91, 100.95 -0.29 M455.63 297.43 C353.96 209.15, 252.24 120.93, 112.99 -0.42 M455.63 297.43 C325.56 186.28, 195.72 72.39, 112.99 -0.42 M455.6 286.8 C365.82 206.47, 273.1 125.69, 125.03 -0.55 M455.6 286.8 C331.19 178.98, 202.49 66.66, 125.03 -0.55 M455.56 276.17 C345.91 179.65, 231.4 82.23, 137.83 -0.03 M455.56 276.17 C367.37 197.09, 277.58 119.15, 137.83 -0.03 M455.53 265.54 C365.71 183.77, 272.2 104.22, 149.87 -0.16 M455.53 265.54 C374.53 196.87, 296.19 128.59, 149.87 -0.16 M455.49 254.91 C351.18 164.97, 247.14 76.04, 161.91 -0.3 M455.49 254.91 C388.93 196.32, 320.26 136.29, 161.91 -0.3 M455.46 244.28 C364.72 161.27, 274.15 80.44, 173.95 -0.43 M455.46 244.28 C368.44 171.73, 280.01 97.15, 173.95 -0.43 M455.42 233.65 C351.24 141.81, 245.15 47.88, 185.99 -0.56 M455.42 233.65 C347.56 138.26, 242.24 49.44, 185.99 -0.56 M455.39 223.02 C384.17 168.63, 319.22 110.59, 198.79 -0.04 M455.39 223.02 C396.05 175.16, 338.43 121.03, 198.79 -0.04 M455.35 212.39 C379.56 147.65, 306.71 83.91, 210.83 -0.17 M455.35 212.39 C384.25 151.52, 316.14 91.98, 210.83 -0.17 M455.32 201.76 C374.53 124.91, 288.33 55.72, 222.87 -0.31 M455.32 201.76 C385.25 144.23, 315.1 83.38, 222.87 -0.31 M455.28 191.13 C403.21 150.55, 350.67 101.17, 234.91 -0.44 M455.28 191.13 C409.87 149.2, 365.45 111.66, 234.91 -0.44 M455.25 180.5 C380.38 113.11, 301.3 45.46, 246.95 -0.57 M455.25 180.5 C388.54 120.5, 320.7 62.76, 246.95 -0.57 M455.22 169.87 C395.01 118.02, 343.39 70.33, 259.75 -0.05 M455.22 169.87 C414.76 129.56, 370.98 93.77, 259.75 -0.05 M455.94 159.9 C416.64 122.33, 373.89 87.31, 271.79 -0.18 M455.94 159.9 C399.78 109.91, 340.65 59.87, 271.79 -0.18 M455.9 149.27 C411.85 110.22, 364.1 65.13, 283.83 -0.32 M455.9 149.27 C393.58 93.22, 328.95 37.39, 283.83 -0.32 M455.87 138.63 C397.64 91.41, 344.69 44.71, 295.87 -0.45 M455.87 138.63 C416.74 106.81, 374.45 70.8, 295.87 -0.45 M455.83 128 C405.61 84.92, 361.66 46.11, 307.91 -0.58 M455.83 128 C414.78 95.83, 377.74 66.66, 307.91 -0.58 M455.8 117.37 C415.66 82.63, 377.34 50.34, 320.71 -0.06 M455.8 117.37 C421.94 83.63, 384.06 54.98, 320.71 -0.06 M455.76 106.74 C408.53 68.54, 362.57 26.87, 332.75 -0.19 M455.76 106.74 C424.94 80.44, 392.26 54.4, 332.75 -0.19 M455.73 96.11 C418.32 59.53, 372.4 22.22, 344.79 -0.33 M455.73 96.11 C428.54 69.16, 401.89 46.93, 344.79 -0.33 M455.69 85.48 C415.72 53.31, 377.02 17.47, 356.83 -0.46 M455.69 85.48 C427.63 59.09, 398.37 37.96, 356.83 -0.46 M455.66 74.85 C438.5 54.73, 412.61 40.01, 368.87 -0.59 M455.66 74.85 C430.41 51.9, 401.13 28.24, 368.87 -0.59 M455.63 64.22 C433.22 44.8, 409.91 24.62, 381.66 -0.07 M455.63 64.22 C433.37 47.21, 414.44 27.81, 381.66 -0.07 M455.59 53.59 C430.81 29.71, 408.16 14.29, 393.7 -0.2 M455.59 53.59 C441.63 38.83, 425.12 25.94, 393.7 -0.2 M455.56 42.96 C441.16 35.72, 427.24 22.97, 405.75 -0.34 M455.56 42.96 C440.4 29.47, 424.47 15.98, 405.75 -0.34 M454.77 31.68 C441.91 22.41, 423.95 6.45, 417.79 -0.47 M454.77 31.68 C441.69 19.59, 433.1 12.03, 417.79 -0.47 M451.71 18.42 C447.46 18.49, 442.11 12.65, 432.09 1.37 M451.71 18.42 C446.15 13.56, 443.29 11.13, 432.09 1.37"
      stroke="#000000" stroke-width="1" fill="none"></path>
    <path
      d="M32 0 C111.36 -6.55, 191.84 -3.94, 422.91 0 M32 0 C127.11 -0.31, 222.09 0.38, 422.91 0 M422.91 0 C447.44 -1.82, 454.94 7.69, 454.91 32 M422.91 0 C447.78 1.74, 451.46 9.53, 454.91 32 M454.91 32 C451.91 122.05, 452.14 214.9, 454.91 298.13 M454.91 32 C457.27 110.34, 457.91 187.53, 454.91 298.13 M454.91 298.13 C451.58 321.21, 443.38 329.06, 422.91 330.13 M454.91 298.13 C457 322.67, 444.79 327.01, 422.91 330.13 M422.91 330.13 C316.69 327.73, 214.71 325.14, 32 330.13 M422.91 330.13 C287.59 331.31, 153.3 329.89, 32 330.13 M32 330.13 C10.67 333.57, -0.41 322.3, 0 298.13 M32 330.13 C14.21 327.2, 3.3 317.64, 0 298.13 M0 298.13 C-3.17 195.3, -2.77 89.39, 0 32 M0 298.13 C-3.11 199.15, -2.51 97.63, 0 32 M0 32 C-3.35 11.96, 8.74 3.26, 32 0 M0 32 C1.49 10.73, 7.01 -4.08, 32 0"
      stroke="#000000" stroke-width="2" fill="none"></path>
  </g>
</svg>