<svg version="1.1" xmlns="http://www.w3.org/2000/svg" viewBox="0 0 694.4711289267738 508.0831304692171" width="2083.413386780321" height="1524.2493914076513" filter="invert(93%) hue-rotate(180deg)">
  <!-- svg-source:excalidraw -->
  
  <defs>
    <style class="style-fonts">
      
    </style>
    
  </defs>
  <g stroke-linecap="round" transform="translate(10 10) rotate(0 337.2355644633869 244.04156523460856)"><path d="M7.86 8.16 C7.86 8.16, 7.86 8.16, 7.86 8.16 M7.86 8.16 C7.86 8.16, 7.86 8.16, 7.86 8.16 M1.43 27.75 C6.69 16.1, 10.9 11.33, 24.4 1.33 M1.43 27.75 C7.97 20.15, 12.61 14.43, 24.4 1.33 M0.26 41.3 C6.52 29.4, 17.67 15.71, 36.34 -0.21 M0.26 41.3 C9.33 32.76, 17.87 22.58, 36.34 -0.21 M0.39 53.34 C10.36 40.5, 24.34 20.21, 46.97 -0.25 M0.39 53.34 C16.69 34.54, 34.04 14.99, 46.97 -0.25 M0.52 65.38 C13.55 46.14, 29.7 24.81, 57.6 -0.28 M0.52 65.38 C12.99 51.15, 24.13 38.3, 57.6 -0.28 M0 78.17 C27.02 51.98, 51.83 17.74, 67.57 0.44 M0 78.17 C24.8 53.77, 43.53 25.91, 67.57 0.44 M0.13 90.22 C19.55 73.02, 41.04 50.96, 78.2 0.41 M0.13 90.22 C23.64 66.15, 45.33 41.84, 78.2 0.41 M0.26 102.26 C24.85 80.68, 40.75 48.36, 88.83 0.37 M0.26 102.26 C23.3 72.87, 51.32 43.46, 88.83 0.37 M0.4 114.3 C28.54 76.13, 60.81 42.97, 99.46 0.34 M0.4 114.3 C23.11 89.29, 49.03 57.88, 99.46 0.34 M0.53 126.34 C35.73 88.38, 64.55 49.56, 110.09 0.3 M0.53 126.34 C32.48 85.92, 66.54 45.11, 110.09 0.3 M0.01 139.13 C33.43 99.11, 67.16 68.41, 120.72 0.27 M0.01 139.13 C34.54 99.55, 65.98 64.68, 120.72 0.27 M0.14 151.17 C44.52 102.43, 86.95 54.15, 131.35 0.23 M0.14 151.17 C48.02 101.21, 93.08 48.03, 131.35 0.23 M0.27 163.22 C31.92 123.91, 65.7 89.26, 141.98 0.2 M0.27 163.22 C36.21 121.11, 77 74.52, 141.98 0.2 M0.41 175.26 C41.29 127.66, 84.08 73.22, 152.61 0.16 M0.41 175.26 C50.81 117.38, 102.43 62.07, 152.61 0.16 M0.54 187.3 C42.92 136.04, 90.52 81.2, 163.24 0.13 M0.54 187.3 C42.2 137.52, 81.53 90.59, 163.24 0.13 M0.02 200.09 C47.93 138.22, 99.02 83, 173.87 0.09 M0.02 200.09 C48.65 148.23, 98.65 91.55, 173.87 0.09 M0.15 212.13 C54.29 141.29, 115.83 76.83, 184.5 0.06 M0.15 212.13 C67.14 130.87, 138.08 50.53, 184.5 0.06 M0.28 224.17 C54.55 164.49, 107.38 102.86, 195.13 0.03 M0.28 224.17 C71.5 143.16, 143.96 59.97, 195.13 0.03 M0.42 236.22 C66.87 155.19, 138.71 74.34, 205.76 -0.01 M0.42 236.22 C69.91 154.61, 141.98 73.83, 205.76 -0.01 M-0.11 249.01 C58.25 181.45, 119.78 110.2, 216.39 -0.04 M-0.11 249.01 C68.44 165.85, 139.37 84.54, 216.39 -0.04 M0.03 261.05 C82.64 163.77, 166.34 71.15, 227.02 -0.08 M0.03 261.05 C79.88 162.6, 164 67.95, 227.02 -0.08 M0.16 273.09 C81.18 182.04, 163.74 88.95, 237.65 -0.11 M0.16 273.09 C88.54 174.29, 176.9 73.97, 237.65 -0.11 M0.29 285.13 C87.25 188.95, 169.98 87.76, 248.28 -0.15 M0.29 285.13 C100.2 171.28, 196.97 59.34, 248.28 -0.15 M0.43 297.17 C67.82 221.09, 138.64 139.79, 258.91 -0.18 M0.43 297.17 C69.28 221.47, 139.51 141.95, 258.91 -0.18 M-0.1 309.97 C61.26 234.44, 125.25 163.66, 269.54 -0.22 M-0.1 309.97 C80.21 216.01, 163.12 120.74, 269.54 -0.22 M0.04 322.01 C68.37 247.47, 131.39 173.08, 280.17 -0.25 M0.04 322.01 C89.39 220.27, 178.29 116.5, 280.17 -0.25 M0.17 334.05 C97.77 221.93, 192.82 111.22, 290.8 -0.28 M0.17 334.05 C94.77 226.44, 190.3 118.29, 290.8 -0.28 M0.3 346.09 C109.04 220.27, 218.06 94.26, 300.78 0.44 M0.3 346.09 C108.92 221.94, 215.48 99.82, 300.78 0.44 M0.44 358.13 C99.52 245.91, 195.63 131.06, 311.41 0.4 M0.44 358.13 C124.54 216.06, 245.62 75.45, 311.41 0.4 M-0.09 370.93 C124.07 228.52, 248.28 84.21, 322.04 0.37 M-0.09 370.93 C111.09 243.91, 220.87 118.78, 322.04 0.37 M0.05 382.97 C78.14 293.93, 155.41 204.82, 332.67 0.33 M0.05 382.97 C123.49 239.52, 251.92 93.29, 332.67 0.33 M0.18 395.01 C130.83 243.76, 259.36 94.41, 343.3 0.3 M0.18 395.01 C120.09 253.39, 242.52 113.47, 343.3 0.3 M0.31 407.05 C98.16 292.91, 199.38 178.02, 353.93 0.26 M0.31 407.05 C106.2 281.81, 213.25 159.48, 353.93 0.26 M0.45 419.09 C139.4 264.02, 274.29 106.81, 364.56 0.23 M0.45 419.09 C89.43 320.5, 173.76 222.32, 364.56 0.23 M-0.08 431.89 C98.13 321.85, 196.37 206.69, 375.19 0.19 M-0.08 431.89 C113.4 305.67, 224.05 177.95, 375.19 0.19 M0.06 443.93 C78.86 354.71, 159.5 262.46, 385.82 0.16 M0.06 443.93 C128.35 298.21, 253.17 153.32, 385.82 0.16 M0.19 455.97 C121.93 311.94, 247.12 165.78, 396.45 0.12 M0.19 455.97 C88.76 355.46, 179.72 252.05, 396.45 0.12 M1.64 466.5 C100.11 353.53, 198.87 240.33, 407.08 0.09 M1.64 466.5 C131.28 316.69, 261.67 167.82, 407.08 0.09 M5.7 474.01 C156.49 305.8, 307.09 133.23, 417.71 0.06 M5.7 474.01 C133.12 329.92, 257.44 186.31, 417.71 0.06 M10.43 480.77 C114.43 364.51, 217.64 246.87, 428.34 0.02 M10.43 480.77 C102.52 374.32, 197.17 266.2, 428.34 0.02 M17.12 485.27 C138.68 342.59, 260.62 204.03, 438.97 -0.01 M17.12 485.27 C124.86 363.22, 230.3 241.61, 438.97 -0.01 M26.44 486.74 C172.37 322.65, 317.65 157.48, 449.6 -0.05 M26.44 486.74 C112.4 388.04, 197.88 290.25, 449.6 -0.05 M35.1 488.97 C184.51 316.15, 333.08 145.83, 460.23 -0.08 M35.1 488.97 C177.48 320.63, 321.78 157.18, 460.23 -0.08 M45.73 488.94 C132.45 385.66, 221.99 280.82, 470.86 -0.12 M45.73 488.94 C178.53 335.24, 314.42 179.3, 470.86 -0.12 M56.36 488.9 C214.9 304.42, 375.57 119.63, 481.49 -0.15 M56.36 488.9 C207.23 314.51, 358.43 140.36, 481.49 -0.15 M66.99 488.87 C202.76 334.5, 338.09 177.96, 492.12 -0.19 M66.99 488.87 C233.54 299.05, 397.7 109.03, 492.12 -0.19 M77.62 488.83 C228.02 311.89, 380.83 138.03, 502.75 -0.22 M77.62 488.83 C176.79 370.38, 276.33 256.27, 502.75 -0.22 M88.25 488.8 C216.41 343.29, 342.71 195.82, 513.38 -0.25 M88.25 488.8 C241.16 310.93, 393.47 136.14, 513.38 -0.25 M98.88 488.76 C209.3 365.65, 320.85 239.94, 523.35 0.47 M98.88 488.76 C194.72 379.3, 292.48 266.7, 523.35 0.47 M109.51 488.73 C250.95 321.32, 394.74 158.58, 533.98 0.43 M109.51 488.73 C237.46 345.16, 363.82 199.83, 533.98 0.43 M120.14 488.69 C210.25 387, 299.58 284.96, 544.61 0.4 M120.14 488.69 C258.1 326.34, 398.56 164.78, 544.61 0.4 M130.77 488.66 C217.15 387.7, 303.74 284.66, 555.24 0.36 M130.77 488.66 C218.3 388.7, 306.87 286.48, 555.24 0.36 M141.4 488.62 C269.97 337.43, 404.21 185.72, 565.87 0.33 M141.4 488.62 C253.71 365.58, 364.67 239.56, 565.87 0.33 M152.03 488.59 C249.39 372.24, 353.28 254.94, 576.5 0.29 M152.03 488.59 C251.16 376.98, 350.53 262.84, 576.5 0.29 M162.66 488.56 C268.39 372.15, 367.14 255.68, 587.14 0.26 M162.66 488.56 C273.14 360.93, 384.99 233.56, 587.14 0.26 M173.29 488.52 C319.61 325.24, 465.65 155.52, 597.77 0.22 M173.29 488.52 C271.99 374.99, 369.41 262.56, 597.77 0.22 M183.93 488.49 C279.75 383.15, 372.49 276.99, 608.4 0.19 M183.93 488.49 C322.9 329.72, 460.93 170.69, 608.4 0.19 M194.56 488.45 C360 299.66, 522.94 112.83, 619.03 0.16 M194.56 488.45 C278.06 391.82, 364.7 292.9, 619.03 0.16 M205.19 488.42 C317.97 358.36, 429.92 231.02, 629.66 0.12 M205.19 488.42 C359.47 311.02, 513.08 135.02, 629.66 0.12 M215.82 488.38 C304.93 383.85, 392.95 281.56, 640.29 0.09 M215.82 488.38 C337.33 349.06, 457.62 211.16, 640.29 0.09 M226.45 488.35 C373.83 316.04, 521.8 148.47, 649.6 1.56 M226.45 488.35 C320.22 382.8, 411.9 276.98, 649.6 1.56 M237.08 488.31 C331.4 380.65, 426.77 273.19, 658.27 3.79 M237.08 488.31 C377.13 334.49, 515.2 176.46, 658.27 3.79 M247.05 489.03 C333.64 384.39, 425.24 279.08, 665.62 7.53 M247.05 489.03 C360.12 361.83, 470.46 234.92, 665.62 7.53 M257.68 489 C340.35 394.23, 425.59 295.42, 670.34 14.29 M257.68 489 C395.25 335.2, 529.47 179.47, 670.34 14.29 M268.31 488.97 C426.94 310.3, 581.72 131.42, 673.1 23.31 M268.31 488.97 C358.04 388.62, 445.41 289.08, 673.1 23.31 M278.94 488.93 C398.9 345.16, 519.47 205.9, 674.54 33.84 M278.94 488.93 C358.85 393.1, 440.5 298.92, 674.54 33.84 M289.57 488.9 C412.11 344.17, 538.46 198.38, 674.68 45.88 M289.57 488.9 C405.51 353.77, 523.41 219.08, 674.68 45.88 M300.2 488.86 C389.12 385.9, 478.86 284.77, 674.81 57.92 M300.2 488.86 C381.76 392.15, 464.79 297.62, 674.81 57.92 M310.83 488.83 C421.98 362.3, 529.9 238.01, 674.94 69.96 M310.83 488.83 C422.26 362.58, 533.72 233.22, 674.94 69.96 M321.46 488.79 C424.34 375.02, 526.72 256.97, 674.42 82.76 M321.46 488.79 C445.19 345.01, 569.41 201.46, 674.42 82.76 M332.09 488.76 C438.65 363, 548.94 239.46, 674.55 94.8 M332.09 488.76 C443.27 360.45, 552.45 233.24, 674.55 94.8 M342.72 488.72 C446.27 372.07, 546.76 254.05, 674.69 106.84 M342.72 488.72 C451.61 368.02, 558.69 243.72, 674.69 106.84 M353.35 488.69 C476.65 349.85, 596.47 210.46, 674.82 118.88 M353.35 488.69 C473.53 349.33, 595.43 207.5, 674.82 118.88 M363.98 488.66 C461.94 373.62, 562.1 257.46, 674.95 130.92 M363.98 488.66 C483.06 351.6, 600.18 216.59, 674.95 130.92 M374.61 488.62 C440.94 412.28, 507.6 333.55, 674.43 143.72 M374.61 488.62 C448.55 403.89, 523.26 317.2, 674.43 143.72 M385.24 488.59 C478.03 386.66, 567.88 282.23, 674.56 155.76 M385.24 488.59 C471.72 388.84, 558.31 288.41, 674.56 155.76 M395.87 488.55 C504.83 365.01, 615.74 239.65, 674.7 167.8 M395.87 488.55 C459.75 417.79, 521.26 348.79, 674.7 167.8 M406.5 488.52 C472.6 409.86, 536.92 332.26, 674.83 179.84 M406.5 488.52 C512.73 364.33, 618.87 241.5, 674.83 179.84 M417.13 488.48 C506.26 377.76, 603.25 272.31, 674.96 191.88 M417.13 488.48 C498.72 396.19, 581.82 300.74, 674.96 191.88 M427.76 488.45 C487.61 414.26, 552.48 344.64, 674.44 204.68 M427.76 488.45 C502.88 400.9, 578.25 312.5, 674.44 204.68 M438.39 488.41 C486.27 432.16, 535.83 372.86, 674.57 216.72 M438.39 488.41 C512.48 406.84, 584.81 322.25, 674.57 216.72 M449.02 488.38 C504.26 430.71, 555.77 364.18, 674.71 228.76 M449.02 488.38 C497.49 434.1, 545.26 378.86, 674.71 228.76 M459.65 488.34 C537.67 398.58, 616.28 303.97, 674.84 240.8 M459.65 488.34 C516.81 424.59, 573.63 357.37, 674.84 240.8 M469.63 489.06 C518.39 431.82, 569.42 373.4, 674.97 252.84 M469.63 489.06 C511.5 438.72, 554.09 388.36, 674.97 252.84 M480.26 489.03 C523.68 436.37, 571.79 387.55, 674.45 265.64 M480.26 489.03 C525.19 439.38, 571.2 386.87, 674.45 265.64 M490.89 489 C552.49 416.38, 610.34 348.64, 674.58 277.68 M490.89 489 C551.83 417.2, 614.48 346.94, 674.58 277.68 M501.52 488.96 C564.67 417.66, 626.75 343.47, 674.72 289.72 M501.52 488.96 C558.45 421.57, 617.63 355.93, 674.72 289.72 M512.15 488.93 C555.94 431.78, 606.12 380.52, 674.85 301.76 M512.15 488.93 C567.53 421.94, 626.65 354.56, 674.85 301.76 M522.78 488.89 C568.24 434.86, 618.08 382.88, 674.98 313.8 M522.78 488.89 C563.57 444, 603.12 396.94, 674.98 313.8 M533.41 488.86 C571.99 442.31, 615.13 392.25, 674.46 326.6 M533.41 488.86 C587.24 426.94, 642.24 366.18, 674.46 326.6 M544.04 488.82 C595.12 431.97, 644.07 377.28, 674.59 338.64 M544.04 488.82 C577.35 449.6, 611.64 414.39, 674.59 338.64 M554.67 488.79 C590.86 450.55, 618.32 414.6, 674.72 350.68 M554.67 488.79 C582.24 458.06, 609.2 428.08, 674.72 350.68 M565.3 488.75 C596.67 460.55, 618.06 425.31, 674.86 362.72 M565.3 488.75 C588.04 463.66, 613.94 434.66, 674.86 362.72 M575.93 488.72 C609.96 449.14, 642.58 408.65, 674.99 374.76 M575.93 488.72 C598.3 460.12, 623.15 432.37, 674.99 374.76 M586.56 488.69 C613.5 456.71, 647.41 419.41, 674.47 387.55 M586.56 488.69 C608.4 465.1, 631.48 439.64, 674.47 387.55 M597.19 488.65 C612.3 468.73, 626.47 452.1, 674.6 399.6 M597.19 488.65 C624.65 456.21, 653 426.83, 674.6 399.6 M607.82 488.62 C623.19 462.81, 643.39 440.39, 674.73 411.64 M607.82 488.62 C630.68 463.49, 655 433.9, 674.73 411.64 M618.45 488.58 C636.03 470.34, 650.51 455.56, 674.87 423.68 M618.45 488.58 C637.2 463.11, 659.99 438.12, 674.87 423.68 M629.08 488.55 C641.99 477.47, 653.96 458.52, 674.34 436.47 M629.08 488.55 C640.87 475.58, 655.47 460.79, 674.34 436.47 M639.71 488.51 C653.73 474.92, 668.72 459.69, 674.48 448.51 M639.71 488.51 C648.79 480.09, 657.13 469.69, 674.48 448.51 M652.31 486.21 C659.76 478.79, 663.66 471.8, 673.3 462.06 M652.31 486.21 C657.16 480.27, 662.99 473.56, 673.3 462.06 M12.73 483.78 C12.73 483.78, 12.73 483.78, 12.73 483.78 M12.73 483.78 C12.73 483.78, 12.73 483.78, 12.73 483.78 M29.3 487.59 C20.52 480.22, 14.63 475.81, 1.38 463.31 M29.3 487.59 C24.14 479.25, 15.66 474, 1.38 463.31 M41.34 487.45 C27.39 474.27, 18.29 469.67, 0.59 452.03 M41.34 487.45 C30.05 476.81, 15.91 466.13, 0.59 452.03 M53.38 487.32 C36.75 480.36, 28.11 462.49, 0.55 441.4 M53.38 487.32 C39.61 475.11, 28.44 463.06, 0.55 441.4 M66.18 487.84 C55.65 479.26, 40.84 461.98, 0.52 430.77 M66.18 487.84 C45.58 468.27, 20.93 450.41, 0.52 430.77 M78.22 487.71 C53.91 468.46, 38.64 446.58, 0.48 420.14 M78.22 487.71 C49.88 465.15, 23.45 437.32, 0.48 420.14 M90.26 487.58 C65.77 465.12, 37.48 440.96, 0.45 409.51 M90.26 487.58 C54.81 459.86, 20.66 428.02, 0.45 409.51 M102.3 487.44 C76.18 462.48, 46.44 436.25, 0.41 398.88 M102.3 487.44 C65.66 456.54, 24.44 419.83, 0.41 398.88 M114.34 487.31 C77.96 454.64, 32.07 418.76, 0.38 388.25 M114.34 487.31 C84.06 458.2, 52.24 430.76, 0.38 388.25 M127.14 487.83 C90.23 453.02, 49.22 420.47, 0.35 377.62 M127.14 487.83 C92.86 460.12, 61 432.1, 0.35 377.62 M139.18 487.7 C90.26 444.77, 40.32 403.96, 0.31 366.99 M139.18 487.7 C109.03 461.35, 76.54 432.54, 0.31 366.99 M151.22 487.57 C102.92 441.53, 55.18 396.93, 0.28 356.36 M151.22 487.57 C105.29 449.45, 56.44 410.36, 0.28 356.36 M163.26 487.44 C100.43 432.99, 36.54 375.12, 0.24 345.73 M163.26 487.44 C97.4 428.13, 33.49 376.31, 0.24 345.73 M175.3 487.3 C125.07 451.41, 82.02 411.97, 0.21 335.1 M175.3 487.3 C134.47 455.78, 96.46 417.61, 0.21 335.1 M188.1 487.83 C129.49 437.95, 74.22 389.43, 0.17 324.47 M188.1 487.83 C132.78 440.83, 80.57 395.06, 0.17 324.47 M200.14 487.69 C131.13 420.66, 55.95 361.62, 0.14 313.84 M200.14 487.69 C139.77 438.38, 78.99 385.7, 0.14 313.84 M212.18 487.56 C162.13 448.75, 111.58 401.01, 0.1 303.21 M212.18 487.56 C168.43 447.09, 125.67 411.03, 0.1 303.21 M224.22 487.43 C143.37 415.1, 58.47 342.35, 0.07 292.58 M224.22 487.43 C152.31 422.99, 79.37 360.77, 0.07 292.58 M237.01 487.95 C164.84 426, 100.77 367.8, 0.04 281.95 M237.01 487.95 C187.62 439.77, 134.85 395.9, 0.04 281.95 M249.06 487.82 C195.59 437.27, 138.73 389.61, 0 271.32 M249.06 487.82 C171.98 420.14, 92.07 351.81, 0 271.32 M261.1 487.68 C192.39 426.83, 121.05 362.06, -0.03 260.69 M261.1 487.68 C165.58 402.91, 68.35 318.66, -0.03 260.69 M273.14 487.55 C176.71 405.63, 84.75 325.22, -0.07 250.06 M273.14 487.55 C205.64 430.74, 134.9 369.79, -0.07 250.06 M285.18 487.42 C190.63 405.17, 98.75 324.94, 0.65 240.08 M285.18 487.42 C209.7 426.24, 137.76 365.53, 0.65 240.08 M297.97 487.94 C211.41 410.66, 124.89 336.03, 0.62 229.45 M297.97 487.94 C221.31 416.87, 141.38 349.86, 0.62 229.45 M310.01 487.81 C193.33 387.84, 79.1 287.6, 0.58 218.82 M310.01 487.81 C232.66 420.47, 155.15 354.39, 0.58 218.82 M322.06 487.67 C204.34 379.6, 80.41 273.24, 0.55 208.19 M322.06 487.67 C241.4 413.78, 160.01 343.52, 0.55 208.19 M334.1 487.54 C205.14 376.35, 77.24 264.07, 0.51 197.56 M334.1 487.54 C239.16 403.37, 143.05 321.96, 0.51 197.56 M346.14 487.41 C267.38 415.99, 186.06 348.95, 0.48 186.93 M346.14 487.41 C241.43 395.17, 134.9 303.4, 0.48 186.93 M358.93 487.93 C245.7 390.18, 130.44 290.03, 0.45 176.3 M358.93 487.93 C255.56 400.29, 154.31 310.97, 0.45 176.3 M370.97 487.8 C225.89 359.08, 79.49 233.6, 0.41 165.67 M370.97 487.8 C279.73 406.51, 185.43 325.14, 0.41 165.67 M383.01 487.66 C280.85 403.99, 179.33 315.49, 0.38 155.04 M383.01 487.66 C262.46 381.69, 140.12 275.48, 0.38 155.04 M395.05 487.53 C243.8 355.23, 91.4 222.61, 0.34 144.41 M395.05 487.53 C269.64 376.73, 145.9 269.13, 0.34 144.41 M407.1 487.4 C316.83 411.79, 228.25 334.31, 0.31 133.78 M407.1 487.4 C311.73 405.57, 215.69 322.11, 0.31 133.78 M419.89 487.92 C331.34 411.78, 245.39 336.96, 0.27 123.15 M419.89 487.92 C307.24 391.4, 191.87 289.76, 0.27 123.15 M431.93 487.79 C294.23 370, 155.27 249.46, 0.24 112.52 M431.93 487.79 C322.36 389.95, 210.83 294.34, 0.24 112.52 M443.97 487.65 C344.17 405.31, 248.8 318.49, 0.2 101.89 M443.97 487.65 C318.29 380.32, 193.38 272.23, 0.2 101.89 M456.01 487.52 C346.86 398.36, 238.79 301.66, 0.17 91.26 M456.01 487.52 C291.24 342.96, 129.38 201.1, 0.17 91.26 M468.05 487.39 C321.91 360.24, 173.98 233.11, 0.13 80.63 M468.05 487.39 C352.06 385.82, 236.94 285.43, 0.13 80.63 M480.85 487.91 C301.3 334.17, 120.53 177.58, 0.1 70 M480.85 487.91 C342.04 362.36, 199.34 239.71, 0.1 70 M492.89 487.78 C345.91 356.4, 199.19 228.46, 0.07 59.37 M492.89 487.78 C363.53 368.45, 231.53 254.31, 0.07 59.37 M504.93 487.64 C372.01 368.71, 236.81 249.83, 0.03 48.74 M504.93 487.64 C307.16 312.55, 108.11 139.88, 0.03 48.74 M516.97 487.51 C349.44 340.7, 176.32 192.89, 0 38.11 M516.97 487.51 C308.93 309.52, 103.6 130.14, 0 38.11 M529.01 487.38 C332.06 316.99, 134.83 144.77, 0.72 28.14 M529.01 487.38 C344.07 331.72, 162.4 174.2, 0.72 28.14 M541.81 487.9 C386.83 353.35, 234.71 221.79, 2.19 18.82 M541.81 487.9 C397.54 363.72, 255.56 240.27, 2.19 18.82 M553.85 487.77 C394.74 349.88, 232.03 208, 5.93 11.47 M553.85 487.77 C445.26 392.23, 333.27 295.13, 5.93 11.47 M565.89 487.63 C360.76 312.07, 156.73 137.71, 11.93 6.09 M565.89 487.63 C422.3 360.65, 279.84 237.24, 11.93 6.09 M577.93 487.5 C379.58 321.23, 183.59 152.62, 18.69 1.36 M577.93 487.5 C461.77 387.25, 349.69 290.23, 18.69 1.36 M589.97 487.37 C408.17 324.85, 226.28 165.51, 29.22 -0.08 M589.97 487.37 C400.04 322.86, 209.45 156.45, 29.22 -0.08 M602.77 487.89 C490 393.38, 377.46 295.42, 41.26 -0.22 M602.77 487.89 C415.15 323.41, 225.95 159.53, 41.26 -0.22 M614.81 487.76 C484.74 376.66, 352.8 259.81, 53.31 -0.35 M614.81 487.76 C478.56 367.52, 340.25 247, 53.31 -0.35 M626.85 487.62 C491.33 371.61, 360.5 256.28, 65.35 -0.48 M626.85 487.62 C421.89 303.22, 213.87 120.89, 65.35 -0.48 M638.89 487.49 C470.85 341.19, 303.15 197.13, 78.14 0.04 M638.89 487.49 C482.73 349.8, 328.82 214.98, 78.14 0.04 M649.42 486.05 C441.77 302.75, 234.12 123.66, 90.18 -0.09 M649.42 486.05 C514.37 368.24, 378.28 250.18, 90.18 -0.09 M659.2 483.94 C525.11 365.21, 390.83 247.98, 102.22 -0.23 M659.2 483.94 C494.22 344.24, 328.9 199.16, 102.22 -0.23 M665.96 479.22 C516.26 348.99, 370.61 222.96, 114.26 -0.36 M665.96 479.22 C527.84 357.76, 386.98 236.85, 114.26 -0.36 M671.21 473.18 C483.79 311.96, 295.6 148.98, 126.31 -0.49 M671.21 473.18 C479.21 304.41, 289.1 138.29, 126.31 -0.49 M672.68 463.86 C514.55 329.09, 356.18 191.43, 139.1 0.03 M672.68 463.86 C526.69 333.88, 378.54 204.6, 139.1 0.03 M674.91 455.2 C568.08 360.59, 464.02 267.51, 151.14 -0.1 M674.91 455.2 C551.56 346.26, 428.57 238.63, 151.14 -0.1 M674.88 444.57 C483.99 275.56, 289.05 103.86, 163.18 -0.24 M674.88 444.57 C494.22 284.38, 313.49 126.3, 163.18 -0.24 M674.84 433.94 C504.17 290.06, 332.79 140.73, 175.22 -0.37 M674.84 433.94 C504.88 290.69, 336.69 144.95, 175.22 -0.37 M674.81 423.31 C500.08 273.91, 325.23 120.26, 187.26 -0.5 M674.81 423.31 C528.37 301.09, 385.03 176.71, 187.26 -0.5 M674.77 412.68 C570.59 324.8, 462.72 230.74, 200.06 0.02 M674.77 412.68 C489.7 247.82, 303.16 85.77, 200.06 0.02 M674.74 402.05 C579.74 317.75, 482.88 236.16, 212.1 -0.11 M674.74 402.05 C549.5 290.88, 422.54 180.93, 212.1 -0.11 M675.46 392.08 C564.81 298.05, 458.34 201.4, 224.14 -0.25 M675.46 392.08 C531.69 268.52, 390.18 145.72, 224.14 -0.25 M675.42 381.45 C570.83 289.89, 466.51 198.27, 236.18 -0.38 M675.42 381.45 C566.7 286.32, 461.14 194.46, 236.18 -0.38 M675.39 370.82 C541.08 252.12, 407.49 136.83, 248.98 0.14 M675.39 370.82 C510.11 228.3, 344.85 83.64, 248.98 0.14 M675.35 360.19 C554.95 256.86, 436.64 148.99, 261.02 0.01 M675.35 360.19 C547.07 245.81, 417.09 131.41, 261.02 0.01 M675.32 349.56 C553.18 246.19, 432.43 141.65, 273.06 -0.12 M675.32 349.56 C568.86 258.52, 463.2 166.73, 273.06 -0.12 M675.29 338.93 C548.09 230.94, 420.04 117.22, 285.1 -0.26 M675.29 338.93 C530.71 210.64, 384.55 83.78, 285.1 -0.26 M675.25 328.3 C531.47 202.13, 383.84 75.52, 297.14 -0.39 M675.25 328.3 C539.76 210.35, 404.03 94.39, 297.14 -0.39 M675.22 317.67 C580.8 234.42, 484.29 152.48, 309.94 0.13 M675.22 317.67 C573.99 229.61, 470.33 141.01, 309.94 0.13 M675.18 307.04 C573.07 218.24, 469.04 131.25, 321.98 0 M675.18 307.04 C584.22 225.98, 493.58 147.98, 321.98 0 M675.15 296.41 C567.55 203.91, 460.96 111.01, 334.02 -0.13 M675.15 296.41 C589.22 221.38, 504.35 147.57, 334.02 -0.13 M675.11 285.78 C594.5 213.2, 513.09 141.76, 346.06 -0.27 M675.11 285.78 C569.27 192.5, 463.45 101.37, 346.06 -0.27 M675.08 275.15 C596.28 203.34, 516.89 136.38, 358.1 -0.4 M675.08 275.15 C589.37 200.43, 502.83 125.71, 358.1 -0.4 M675.04 264.52 C597.87 197.29, 521.91 127.97, 370.9 0.12 M675.04 264.52 C591.3 192.79, 507.38 120.94, 370.9 0.12 M675.01 253.89 C570.5 161.94, 462.87 66.52, 382.94 -0.01 M675.01 253.89 C587.61 178.34, 497.53 99.94, 382.94 -0.01 M674.97 243.26 C618.1 189.03, 556.96 138.77, 394.98 -0.14 M674.97 243.26 C614.76 189.97, 556.9 139.4, 394.98 -0.14 M674.94 232.63 C599.58 162.3, 518.53 94.86, 407.02 -0.28 M674.94 232.63 C598.06 163.83, 520.94 97.36, 407.02 -0.28 M674.91 222 C577.43 136.6, 484.76 58.16, 419.06 -0.41 M674.91 222 C573.24 137.49, 471.98 50.79, 419.06 -0.41 M674.87 211.37 C581.34 129.86, 483.02 48.99, 431.85 0.11 M674.87 211.37 C601.64 144.54, 524.55 77.77, 431.85 0.11 M674.84 200.74 C607.86 139.35, 546.02 84.99, 443.9 -0.02 M674.84 200.74 C618.01 149.03, 557.87 98.77, 443.9 -0.02 M674.8 190.11 C601.58 126.89, 530.53 64.27, 455.94 -0.15 M674.8 190.11 C622.33 147.45, 570.52 99.42, 455.94 -0.15 M674.77 179.48 C614.7 129.88, 559.21 77.26, 467.98 -0.29 M674.77 179.48 C596.15 109.89, 516.18 39.6, 467.98 -0.29 M674.73 168.85 C600.63 108.29, 533.69 48.11, 480.02 -0.42 M674.73 168.85 C615.05 119.07, 553.73 68.29, 480.02 -0.42 M675.45 158.87 C600.39 100.58, 530.92 33.99, 492.81 0.1 M675.45 158.87 C607.45 99.64, 539.22 42.11, 492.81 0.1 M675.42 148.24 C638.9 118.34, 602.38 91.6, 504.85 -0.03 M675.42 148.24 C623.64 96.65, 568.82 48.61, 504.85 -0.03 M675.38 137.61 C622.63 82.61, 563.31 34.85, 516.9 -0.16 M675.38 137.61 C618.97 92.74, 566.83 45.43, 516.9 -0.16 M675.35 126.98 C625.73 75.35, 572.26 32.92, 528.94 -0.29 M675.35 126.98 C641.46 93.7, 603.55 61.7, 528.94 -0.29 M675.32 116.35 C633.85 79.66, 585.8 38.35, 540.98 -0.43 M675.32 116.35 C622.75 69.5, 567.75 26.98, 540.98 -0.43 M675.28 105.72 C648.66 82.63, 614.27 54.06, 553.77 0.1 M675.28 105.72 C648.32 80.99, 619.48 52.59, 553.77 0.1 M675.25 95.09 C647.16 71.94, 614.99 44.68, 565.81 -0.04 M675.25 95.09 C649.59 75.36, 625.8 53.53, 565.81 -0.04 M675.21 84.46 C638 49.77, 604.12 23.27, 577.85 -0.17 M675.21 84.46 C634.24 53.21, 597.01 19.8, 577.85 -0.17 M675.18 73.83 C641.27 46.4, 607.08 15.37, 589.9 -0.3 M675.18 73.83 C652.97 53.7, 630.41 36, 589.9 -0.3 M675.14 63.2 C655.6 43.73, 641.19 32.23, 601.94 -0.44 M675.14 63.2 C645.12 35.98, 619.07 13.91, 601.94 -0.44 M675.11 52.57 C655.24 33.86, 631.92 18.72, 614.73 0.09 M675.11 52.57 C657.15 34.66, 636.23 19.99, 614.73 0.09 M675.07 41.94 C663.15 27.83, 644.41 17.26, 626.77 -0.05 M675.07 41.94 C663.01 27.7, 647.61 15.59, 626.77 -0.05 M675.04 31.31 C670.69 26.74, 658.78 15.11, 638.81 -0.18 M675.04 31.31 C662.32 21.52, 648.59 6.27, 638.81 -0.18 M671.99 18.06 C667.05 15.18, 665.85 13.54, 653.12 1.65 M671.99 18.06 C668.02 13.78, 659.9 9.62, 653.12 1.65" stroke="#fcc2d7" stroke-width="1" fill="none"></path><path d="M32 0 C155.61 -6.21, 279.99 -4.41, 642.47 0 M32 0 C180.25 -0.41, 328.42 0.07, 642.47 0 M642.47 0 C667 -1.82, 674.5 7.69, 674.47 32 M642.47 0 C667.34 1.74, 671.01 9.53, 674.47 32 M674.47 32 C671.13 177.15, 671.28 324.16, 674.47 456.08 M674.47 32 C677.08 156.27, 677.51 279.78, 674.47 456.08 M674.47 456.08 C671.13 479.16, 662.94 487.02, 642.47 488.08 M674.47 456.08 C676.55 480.62, 664.35 484.97, 642.47 488.08 M642.47 488.08 C477.7 485.36, 315.85 483.58, 32 488.08 M642.47 488.08 C431.24 489.19, 220.73 488.21, 32 488.08 M32 488.08 C10.67 491.53, -0.41 480.25, 0 456.08 M32 488.08 C14.21 485.15, 3.3 475.6, 0 456.08 M0 456.08 C-3.69 290.83, -3.42 123.53, 0 32 M0 456.08 C-3.36 296.95, -2.96 136.11, 0 32 M0 32 C-3.35 11.96, 8.74 3.26, 32 0 M0 32 C1.49 10.73, 7.01 -4.08, 32 0" stroke="#1e1e1e" stroke-width="2" fill="none"></path></g></svg>