<svg version="1.1" xmlns="http://www.w3.org/2000/svg" viewBox="0 0 202.7608065786037 211.81802265427672" width="608.2824197358111" height="635.4540679628301" filter="invert(93%) hue-rotate(180deg)">
  <!-- svg-source:excalidraw -->
  
  <defs>
    <style class="style-fonts">
      
    </style>
    
  </defs>
  <g stroke-linecap="round" transform="translate(19.397644083514024 10.000000000000057) rotate(0 86.68158124754484 95.90901132713833)"><path d="M114.05 3.89 C124.2 6.09, 134.08 15.31, 142.32 23.49 C150.55 31.68, 158.38 42.02, 163.46 52.99 C168.54 63.97, 171.86 77.14, 172.77 89.33 C173.68 101.52, 172.44 114.51, 168.92 126.12 C165.4 137.72, 158.93 149.84, 151.64 158.95 C144.35 168.06, 134.88 175.41, 125.16 180.79 C115.45 186.17, 104.11 190.1, 93.33 191.22 C82.55 192.33, 71 191.14, 60.47 187.46 C49.94 183.77, 38.58 177.26, 30.14 169.13 C21.71 160.99, 14.9 149.61, 9.87 138.63 C4.84 127.65, 0.86 115.19, -0.04 103.23 C-0.94 91.27, 1.04 78.44, 4.47 66.88 C7.91 55.31, 13.31 43.26, 20.59 33.86 C27.86 24.45, 38.31 15.99, 48.12 10.46 C57.93 4.93, 66.96 1.04, 79.45 0.68 C91.94 0.32, 114.54 5.84, 123.06 8.3 C131.58 10.76, 131.25 13.9, 130.56 15.45 M79.41 -0.56 C89.65 -2.74, 103.53 0.96, 114.1 5.16 C124.66 9.37, 134.5 16.7, 142.78 24.7 C151.06 32.7, 158.71 42.51, 163.78 53.16 C168.85 63.81, 172.3 76.47, 173.22 88.61 C174.13 100.74, 172.62 114.04, 169.28 125.96 C165.93 137.87, 160.25 150.6, 153.15 160.1 C146.06 169.6, 136.76 177.56, 126.7 182.98 C116.65 188.4, 104.18 191.97, 92.82 192.63 C81.45 193.28, 69.16 190.84, 58.53 186.91 C47.9 182.98, 37.52 177.25, 29.05 169.05 C20.57 160.86, 12.7 148.59, 7.68 137.74 C2.66 126.89, -0.74 115.98, -1.06 103.95 C-1.37 91.92, 2.09 77.43, 5.81 65.55 C9.52 53.66, 14.37 41.73, 21.25 32.64 C28.13 23.56, 37.28 16.36, 47.1 11.04 C56.92 5.71, 74.65 2.41, 80.17 0.68 C85.69 -1.05, 79.87 -0.61, 80.21 0.67" stroke="transparent" stroke-width="1" fill="none"></path></g><g stroke-linecap="round"><g transform="translate(60.531744383562454 120.3190963135151) rotate(0 13.847303813037684 -11.132114150254893)"><path d="M0.75 1.05 C2.32 0.24, 7.11 -4.07, 9.9 -4.41 C12.68 -4.75, 14.54 -0.92, 17.45 -1 C20.36 -1.07, 25.53 -1.25, 27.36 -4.86 C29.2 -8.47, 28.21 -19.71, 28.46 -22.65 M-0.31 0.56 C1.1 -0.64, 5.86 -6.05, 9.22 -6.16 C12.57 -6.26, 16.72 -0.44, 19.84 -0.09 C22.96 0.26, 26.68 -0.31, 27.94 -4.04 C29.2 -7.77, 27.51 -19.19, 27.39 -22.46" stroke="#495057" stroke-width="1" fill="none"></path></g></g><mask></mask><g stroke-linecap="round"><g transform="translate(135.26893365664 183.91926742129164) rotate(0 5.241588145319611 -15.810544502388097)"><path d="M0.51 0.71 C1.78 -0.69, 5.01 -6.67, 8.37 -7.37 C11.72 -8.06, 17.09 -2.22, 20.63 -3.46 C24.16 -4.7, 33.51 -10.08, 29.59 -14.81 C25.67 -19.55, 4.97 -29.97, -2.9 -31.87 C-10.77 -33.76, -15.22 -27.15, -17.64 -26.19 M-0.68 0.04 C0.89 -0.71, 7.1 -5.83, 10.57 -6.24 C14.05 -6.65, 16.91 -1.15, 20.19 -2.43 C23.47 -3.71, 34.23 -9.05, 30.24 -13.91 C26.25 -18.77, 4.53 -29.9, -3.76 -31.61 C-12.06 -33.32, -16.82 -25.39, -19.52 -24.17" stroke="#495057" stroke-width="1" fill="none"></path></g></g><mask></mask><g stroke-linecap="round"><g transform="translate(10.140128002094343 134.76607933741815) rotate(0 58.50696788570281 15.73363178441349)" fill-rule="evenodd"><path d="M0.12 1.68 L0.24 7.49 L86.86 54.47 L114.94 35.44 L117.21 23.63 L31.99 -25.5 L1.96 0.69" stroke="none" stroke-width="0" fill="#ced4da" fill-rule="evenodd"></path><path d="M0 0 C-0.3 2.55, -0.08 4.83, 0.25 6.44 M0 0 C0.32 1.41, 0.44 3.17, 0.25 6.44 M0.25 6.44 C22.06 19.45, 41.21 31.45, 85.68 56.18 M0.25 6.44 C28.83 23.95, 58.85 40.55, 85.68 56.18 M85.68 56.18 C94.42 49.92, 105.34 41.19, 115.92 34.42 M85.68 56.18 C93.73 50.46, 102.21 44.59, 115.92 34.42 M115.92 34.42 C116.4 31.74, 117.32 29.65, 117.01 24.61 M115.92 34.42 C116.37 31.27, 116.91 28.73, 117.01 24.61 M117.01 24.61 C85.8 4.77, 52.2 -14.08, 32.27 -24.71 M117.01 24.61 C87.6 7.85, 60.32 -9.91, 32.27 -24.71 M32.27 -24.71 C23.48 -17.7, 13 -10.25, 0 0 M32.27 -24.71 C25.41 -19.83, 19.57 -15.53, 0 0 M0 0 C0 0, 0 0, 0 0 M0 0 C0 0, 0 0, 0 0" stroke="#495057" stroke-width="2" fill="none"></path></g></g><mask></mask><g stroke-linecap="round"><g transform="translate(11.401373727497457 135.9636329633908) rotate(0 57.71744747199705 24.559466449503702)"><path d="M0 0 C17.3 11.65, 36.08 23.11, 84.16 49.12 M0 0 C24.57 13.66, 46.75 28.1, 84.16 49.12 M84.16 49.12 C91.93 42.5, 101.71 33.2, 115.43 22.87 M84.16 49.12 C93.21 41.82, 101.25 35.74, 115.43 22.87" stroke="#495057" stroke-width="1" fill="none"></path></g></g><mask></mask><g stroke-linecap="round"><g transform="translate(95.84834928815485 191.96490378955224) rotate(0 -0.03428851084458984 -3.278654683202319)"><path d="M0 0 C-0.08 -2.1, -0.08 -4.49, -0.07 -6.56 M0 0 C-0.09 -1.35, -0.08 -2.61, -0.07 -6.56" stroke="#495057" stroke-width="1" fill="none"></path></g></g><mask></mask><g stroke-linecap="round"><g transform="translate(41.107023331579285 116.62046508028135) rotate(0 12.768819584244284 23.229330972771606)" fill-rule="evenodd"><path d="M-0.51 -1.99 L-21.39 15.94 L26.02 46.93 L48.57 26.53 L-1.81 1.14" stroke="none" stroke-width="0" fill="#495057" fill-rule="evenodd"></path><path d="M0 0 C-8.8 7.89, -18.65 14.75, -22.9 17.87 M0 0 C-5.25 4.31, -9.47 7.28, -22.9 17.87 M-22.9 17.87 C-7 27.23, 10.5 38.21, 27.14 46.46 M-22.9 17.87 C-8.69 25.13, 5.83 33.79, 27.14 46.46 M27.14 46.46 C31.81 41.85, 37.69 38.15, 48.43 27.38 M27.14 46.46 C33.03 41.64, 38.26 37.21, 48.43 27.38 M48.43 27.38 C34.59 20.38, 21.66 13.7, 0 0 M48.43 27.38 C29.1 17.73, 9.54 6.24, 0 0 M0 0 C0 0, 0 0, 0 0 M0 0 C0 0, 0 0, 0 0" stroke="#495057" stroke-width="1" fill="none"></path></g></g><mask></mask><g stroke-linecap="round"><g transform="translate(92.50943785587651 145.90478055099442) rotate(0 0.8908947863122876 5.644688226511732)" fill-rule="evenodd"><path d="M0.75 -0.97 L-7.75 6.83 L2.35 10.86 L8.06 5.63 L-0.37 0.83" stroke="none" stroke-width="0" fill="#495057" fill-rule="evenodd"></path><path d="M0 0 C-3.32 3, -6.13 4.97, -7.18 6.59 M0 0 C-1.97 1.83, -4.01 3.86, -7.18 6.59 M-7.18 6.59 C-5.02 7.93, -3.18 8.76, 2.28 11.29 M-7.18 6.59 C-3.49 8.44, -0.11 10.08, 2.28 11.29 M2.28 11.29 C4.07 9.86, 5.84 7.53, 8.96 5.06 M2.28 11.29 C3.83 9.95, 5.51 8.25, 8.96 5.06 M8.96 5.06 C6.16 3.85, 3.98 2.4, 0 0 M8.96 5.06 C5.35 3.13, 1.86 1.28, 0 0 M0 0 C0 0, 0 0, 0 0 M0 0 C0 0, 0 0, 0 0" stroke="#495057" stroke-width="1" fill="none"></path></g></g><mask></mask><g stroke-linecap="round"><g transform="translate(104.85096768943822 152.51631439040312) rotate(0 -4.177947823901036 13.431605859593105)" fill-rule="evenodd"><path d="M-0.56 0.24 L-20.78 18.36 L-9.06 27.43 L12.12 8.98 L-0.02 -0.45" stroke="none" stroke-width="0" fill="#495057" fill-rule="evenodd"></path><path d="M0 0 C-8.44 6.24, -15.2 13.24, -20.85 18.79 M0 0 C-7.25 6.87, -15.23 13.2, -20.85 18.79 M-20.85 18.79 C-17.44 21.17, -13.17 23.24, -8.15 26.86 M-20.85 18.79 C-17.73 20.72, -14.37 22.8, -8.15 26.86 M-8.15 26.86 C-2.1 20.33, 4.04 15.32, 12.49 8.15 M-8.15 26.86 C-1.69 20.9, 5.03 14.74, 12.49 8.15 M12.49 8.15 C9.16 6.16, 5.09 2.89, 0 0 M12.49 8.15 C7.67 5.29, 2.89 1.83, 0 0 M0 0 C0 0, 0 0, 0 0 M0 0 C0 0, 0 0, 0 0" stroke="#495057" stroke-width="1" fill="none"></path></g></g><mask></mask><g stroke-linecap="round"><g transform="translate(115.1128830641178 194.36515406118264) rotate(0 11.302442245611132 -4.172013273332709)" fill-rule="evenodd"><path d="M0.29 -0.14 L11.25 5.56 L22.6 -3.69 L22.89 -10.14 L12.62 -12.55 L0.1 -0.49" stroke="none" stroke-width="0" fill="#ced4da" fill-rule="evenodd"></path><path d="M0 0 C4.09 1.62, 8.74 3.78, 11.19 4.72 M0 0 C2.83 1.18, 6.09 2.64, 11.19 4.72 M11.19 4.72 C15.88 1.5, 19.09 -1.43, 22.6 -4.21 M11.19 4.72 C14.73 1.78, 18.45 -0.96, 22.6 -4.21 M22.6 -4.21 C22.37 -6.05, 22.43 -8.02, 22.3 -9.29 M22.6 -4.21 C22.5 -6.21, 22.4 -8.15, 22.3 -9.29 M22.3 -9.29 C19.38 -10.65, 15.96 -12.26, 13.11 -13.06 M22.3 -9.29 C19.31 -10.59, 16.59 -11.34, 13.11 -13.06 M13.11 -13.06 C7.67 -8.41, 3.37 -3, 0 0 M13.11 -13.06 C9.13 -9.28, 4.21 -4.42, 0 0 M0 0 C0 0, 0 0, 0 0 M0 0 C0 0, 0 0, 0 0" stroke="#495057" stroke-width="2" fill="none"></path></g></g><mask></mask><g stroke-linecap="round"><g transform="translate(96.67511011293436 101.09797353842106) rotate(0 27.429464917155542 10.22223647020104)" fill-rule="evenodd"><path d="M1.62 1.71 L1 19.28 L29.81 35.98 L54.13 15.43 L53.53 -2.79 L27.82 -13.16 L0.4 1.39" stroke="none" stroke-width="0" fill="#ced4da" fill-rule="evenodd"></path><path d="M0 0 C1.15 5.67, -0.42 10.59, 0.25 20.63 M0 0 C-0.3 7.29, 0.59 13.93, 0.25 20.63 M0.25 20.63 C8.5 25.99, 18.63 28.88, 28.06 34.89 M0.25 20.63 C7.57 24.33, 15.42 27.88, 28.06 34.89 M28.06 34.89 C34.41 29.84, 41.68 25.98, 53.77 16.69 M28.06 34.89 C36.35 29.11, 44.82 24.47, 53.77 16.69 M53.77 16.69 C55.41 8.05, 54.41 0.36, 54.86 -3.25 M53.77 16.69 C53.49 10.64, 55.63 2.95, 54.86 -3.25 M54.86 -3.25 C48.37 -7.21, 40.08 -10.75, 29.73 -14.44 M54.86 -3.25 C49.17 -5.51, 44.75 -8.41, 29.73 -14.44 M29.73 -14.44 C25.25 -11.56, 16.46 -8.31, 0 0 M29.73 -14.44 C18.79 -9.29, 6.4 -3.12, 0 0 M0 0 C0 0, 0 0, 0 0 M0 0 C0 0, 0 0, 0 0" stroke="#495057" stroke-width="2" fill="none"></path></g></g><mask></mask><g stroke-linecap="round"><g transform="translate(88.03567618248371 13.394166819542477) rotate(0 43.82406171285561 56.408854097305436)"><path d="M0.39 -0.3 C6.28 0.24, 21.84 -0.71, 34.95 3.94 C48.06 8.59, 70.32 17.7, 79.06 27.59 C87.79 37.48, 86.45 52.84, 87.39 63.3 C88.32 73.75, 88 81.9, 84.66 90.32 C81.33 98.73, 73.14 111.72, 67.39 113.78 C61.64 115.83, 60.11 114.18, 50.18 102.65 C40.26 91.13, 15.41 60.47, 7.86 44.64 C0.3 28.81, 5.3 13.83, 4.84 7.67 M-0.86 -1.51 C4.93 -1.39, 20.46 -2.96, 34.18 2.08 C47.89 7.12, 72.54 18.3, 81.42 28.71 C90.31 39.12, 87.14 54.24, 87.5 64.55 C87.85 74.86, 86.66 82.48, 83.57 90.6 C80.47 98.71, 74.4 110.89, 68.95 113.24 C63.49 115.59, 61.14 116.18, 50.82 104.7 C40.51 93.23, 14.45 60.23, 7.07 44.4 C-0.31 28.57, 6.75 15.94, 6.53 9.7" stroke="#495057" stroke-width="2" fill="none"></path></g></g><mask></mask><g stroke-linecap="round"><g transform="translate(63.57636959563388 70.71470708014857) rotate(0 51.30170242884083 2.419402003864718)" fill-rule="evenodd"><path d="M-1.72 -1.31 C-0.4 3.91, -3.95 19.67, 9.55 30.56 C23.04 41.45, 63.97 61.96, 79.23 64.04 C94.49 66.12, 97.2 56.7, 101.12 43.05 C105.04 29.39, 105.71 -4.57, 102.73 -17.91 C99.75 -31.24, 95.23 -30.83, 83.24 -36.98 C71.24 -43.13, 43.63 -53.61, 30.74 -54.8 C17.85 -56, 11.04 -53.57, 5.9 -44.15 C0.76 -34.73, 1.08 -5.64, -0.13 1.72" stroke="none" stroke-width="0" fill="#ced4da" fill-rule="evenodd"></path><path d="M0.33 0.5 C1.67 5.51, -4.84 19.47, 8.44 29.75 C21.72 40.04, 64.35 60.09, 80.02 62.22 C95.69 64.34, 98.68 55.57, 102.49 42.5 C106.29 29.42, 106.18 -2.97, 102.87 -16.24 C99.57 -29.51, 94.88 -30.36, 82.68 -37.14 C70.47 -43.92, 42.88 -55.3, 29.66 -56.9 C16.44 -58.51, 8.37 -56.17, 3.38 -46.77 C-1.61 -37.36, 0.26 -8.24, -0.29 -0.47 M-0.95 -0.28 C0.72 4.93, -2.72 20.43, 10.62 31.09 C23.97 41.75, 63.7 61.61, 79.12 63.68 C94.53 65.75, 99.37 57.27, 103.1 43.49 C106.84 29.71, 104.72 -5.35, 101.55 -19 C98.38 -32.66, 95.92 -31.92, 84.09 -38.45 C72.25 -44.97, 43.6 -56.66, 30.54 -58.15 C17.48 -59.63, 10.55 -57.3, 5.72 -47.35 C0.88 -37.4, 2.35 -6.22, 1.55 1.55" stroke="#495057" stroke-width="2" fill="none"></path></g></g><mask></mask><g stroke-linecap="round"><g transform="translate(70.54185423654599 69.73970691997255) rotate(0 43.534279005699545 1.8242935964272817)" fill-rule="evenodd"><path d="M0.11 0.43 C1.54 5.22, -3.68 18.84, 6.88 27.43 C17.44 36.02, 50.13 49.84, 63.47 51.97 C76.81 54.1, 82.89 50.78, 86.92 40.2 C90.94 29.63, 90.27 -0.01, 87.62 -11.46 C84.97 -22.91, 81.21 -22.77, 71.03 -28.5 C60.84 -34.23, 37.8 -44.38, 26.5 -45.83 C15.19 -47.28, 7.83 -44.83, 3.19 -37.2 C-1.44 -29.56, -0.53 -6.38, -1.31 -0.01" stroke="none" stroke-width="0" fill="#0c8599" fill-rule="evenodd"></path><path d="M-1 -0.38 C0.22 3.81, -3.3 16.97, 7.67 25.6 C18.64 34.23, 51.6 48.71, 64.83 51.42 C78.07 54.14, 83.36 52.38, 87.06 41.87 C90.77 31.36, 89.92 0.46, 87.06 -11.62 C84.21 -23.69, 80.46 -24.46, 69.94 -30.6 C59.43 -36.74, 35.13 -46.98, 23.98 -48.44 C12.83 -49.91, 7.01 -47.44, 3.03 -39.39 C-0.95 -31.35, 0.47 -6.67, 0.09 -0.17 M0.67 -1.62 C1.69 2.14, -4.04 14.58, 6.59 23.63 C17.21 32.67, 50.96 49.93, 64.44 52.63 C77.92 55.33, 83.93 50.5, 87.45 39.82 C90.98 29.13, 88.84 0.4, 85.59 -11.49 C82.34 -23.38, 78.15 -25.73, 67.94 -31.54 C57.72 -37.35, 35.34 -44.96, 24.32 -46.37 C13.31 -47.78, 6.16 -47.43, 1.86 -39.98 C-2.45 -32.53, -0.93 -8.14, -1.53 -1.65" stroke="#495057" stroke-width="2" fill="none"></path></g></g><mask></mask></svg>