<svg version="1.1" xmlns="http://www.w3.org/2000/svg" viewBox="0 0 242.26382315550154 103.69773782261001" width="726.7914694665046" height="311.09321346783" filter="invert(93%) hue-rotate(180deg)">
  <!-- svg-source:excalidraw -->
  
  <defs>
    <style class="style-fonts">
      
    </style>
    
  </defs>
  <g stroke-linecap="round" transform="translate(76.44076124612775 29.866609421223814) rotate(0 31.211537358973146 31.915564200693126)"><path d="M5.48 16.69 C5.48 16.69, 5.48 16.69, 5.48 16.69 M5.48 16.69 C5.48 16.69, 5.48 16.69, 5.48 16.69 M6.24 21.45 C4.33 19.24, 13.34 15.26, 22.51 1.83 M4.18 22.87 C10.88 18.9, 14.58 14.1, 20.53 1.68 M-0.92 29.89 C8.11 23.52, 16.93 13.15, 24.76 4.63 M3.35 33.96 C7.82 26.07, 10.43 22.53, 26.89 1.61 M1.76 40.19 C8.33 26.19, 22.01 17.69, 31.3 5.97 M2.37 37.1 C7.96 28.82, 15.26 22.53, 34.13 2.62 M2.83 41.48 C9.53 31.67, 18.41 22.78, 42.43 3.62 M4.32 43.72 C17.9 29.69, 26.57 13.58, 36.88 1.52 M8.14 50.28 C24.82 25.69, 35.72 11.12, 41.82 1.29 M6.09 44.62 C15.57 33.02, 26.39 22.11, 42.61 4.04 M9.5 54.07 C18.5 37.44, 30.38 21.74, 45.82 7.42 M8.08 52.55 C20.56 35.72, 31.57 23, 46.02 6.57 M10.7 57.23 C27.8 34.06, 42.48 23.36, 51.29 5.82 M9.16 55.1 C25.31 33.93, 40.29 19.09, 49.89 9.88 M12.84 55.87 C25.17 44.57, 40.99 25.17, 49.84 7.27 M13.07 56.57 C21.73 46.32, 30.95 32.85, 52.22 9.64 M14.35 54.01 C26.43 43.23, 38.45 34.73, 59.03 17.5 M17.43 57.15 C32.5 42.79, 45.22 28.83, 54.54 15.46 M24.95 57.12 C26.62 51.17, 39.68 38.71, 59.09 20.65 M20.65 57.44 C27.71 50.17, 35 43.32, 59.53 17.34 M23.71 58.61 C31.08 47.34, 39.68 40.83, 60.19 23.83 M25.03 59.93 C35 52.19, 44.88 41.28, 59.41 21.19 M28.97 65.32 C40.71 49.91, 53.94 35.88, 63.19 24.56 M27.68 61.53 C34.07 56.23, 43.33 47.3, 61.57 27.33 M35.05 65.03 C45.43 49.19, 48.8 45.58, 64.21 29.8 M34.2 64.05 C43.89 51.77, 54.26 40.99, 62.2 32.47 M45.57 57.18 C45.74 54.33, 54.31 48.27, 61.39 41.71 M41.05 59.95 C50.1 54.05, 54.43 45.03, 62.04 38.48 M48.69 56.72 C49.84 57.36, 51.34 54.94, 53.46 52.39 M49.91 57.69 C52.03 55.85, 52.48 53.26, 55.26 51.49 M8.88 53.8 C8.88 53.8, 8.88 53.8, 8.88 53.8 M8.88 53.8 C8.88 53.8, 8.88 53.8, 8.88 53.8 M21.72 57.46 C16.48 56.14, 12.77 52.27, 8.51 48.63 M18.88 56.91 C16.02 56.74, 11.25 52.22, 6.56 46.74 M30.74 59.67 C17.99 51.18, 8.52 47.81, -0.67 40.61 M29.78 61.32 C23.71 56.74, 12.7 46.34, 1.89 38.92 M34.57 60.37 C22.03 47.7, 8.82 39.54, -0.58 35.75 M34.96 60.12 C27.59 52.7, 18.34 45.3, 1.85 32.57 M37.87 60.25 C30.27 52.32, 11.52 33.47, 6.55 30.07 M40.9 58.59 C25.6 49.46, 16.21 36.64, 2.73 27.09 M41.89 57.44 C30.91 42.42, 21.45 30.58, 2.67 22.8 M42.65 59.01 C34.87 51.03, 28.6 45.51, 3.98 25.66 M45.87 59.34 C38.01 52.07, 26.87 41.58, 3.45 22.51 M48.17 57.45 C38.95 46.8, 29.23 40.84, 4.74 18.29 M49.19 57.38 C42.39 44.44, 28.98 32.29, 7.46 16.44 M51.59 55.52 C41.86 44.39, 32.39 37.1, 8.03 16.18 M51.71 54.91 C42.12 41.96, 32.41 25.61, 7.51 9.03 M56.45 49.32 C40.17 37.36, 24.48 26.34, 11.07 11.31 M58.95 44.63 C41.78 29.36, 22.88 18.78, 16.55 13.52 M55.93 47.81 C40.82 31.67, 24.09 18.3, 14.18 8.95 M56.88 43.21 C45.8 28.2, 34.64 16.67, 13.74 8.38 M58.62 44.45 C40.93 29.66, 26.49 17.32, 13.86 5.15 M57.16 44.6 C49.03 25.56, 31.14 15.44, 17.91 7.39 M60.8 39.52 C46.78 28.37, 29.51 13.95, 19.27 5.78 M60.87 36.13 C44.92 19.65, 34.57 12.19, 19.35 3.68 M61.1 37.2 C50.88 30.3, 40.99 20.9, 22.98 -0.37 M58.79 34.42 C56.38 23.14, 42.47 16.36, 26.03 2.93 M63.82 30.5 C53.51 24.58, 46.77 15.4, 26.22 0.54 M65.15 26.69 C54.33 18.25, 50.85 15.46, 30.6 4.28 M63.71 27.57 C53.69 18.56, 48.23 14.41, 32.84 1.35 M61.59 23.51 C56.35 15.71, 49.14 7.06, 38.65 -1.25 M60.89 21.41 C55.13 16.93, 53.63 12.52, 40.64 1.32" stroke="#495057" stroke-width="0.5" fill="none"></path><path d="M43.84 2.96 C49.71 5.26, 56.54 11.71, 59.34 17.93 C62.13 24.15, 61.99 33.9, 60.59 40.25 C59.18 46.6, 55.73 52.25, 50.91 56.05 C46.09 59.85, 38.7 63.45, 31.67 63.06 C24.65 62.67, 13.85 58.29, 8.77 53.7 C3.69 49.11, 1.7 41.74, 1.19 35.53 C0.68 29.31, 2.63 21.78, 5.71 16.43 C8.79 11.08, 10.35 2.3, 19.66 3.42 C28.97 4.54, 55.83 15.3, 61.57 23.16 C67.31 31.02, 54.42 49.95, 54.11 50.58 M13.36 7.36 C17.48 2.94, 24.1 -0.8, 30.07 -0.84 C36.04 -0.87, 43.4 2.77, 49.18 7.17 C54.95 11.56, 63.1 18.2, 64.74 25.53 C66.38 32.85, 63.28 45.51, 59.04 51.12 C54.8 56.74, 46.25 57.14, 39.32 59.24 C32.39 61.34, 23.21 65.34, 17.45 63.74 C11.68 62.13, 7.68 55.5, 4.75 49.6 C1.82 43.71, -1.62 35.55, -0.11 28.36 C1.39 21.17, 11.83 9.9, 13.78 6.47 C15.74 3.04, 11.18 7.12, 11.61 7.79" stroke="transparent" stroke-width="1" fill="none"></path></g><g stroke-linecap="round" transform="translate(169.371373337548 26.111859279205703) rotate(0 31.211537358973146 31.915564200693126)"><path d="M11.03 8.26 C11.03 8.26, 11.03 8.26, 11.03 8.26 M11.03 8.26 C11.03 8.26, 11.03 8.26, 11.03 8.26 M6.36 21.86 C3.64 22.82, 13.59 11.55, 18.42 7.66 M2.55 24.55 C8.94 17.36, 14.12 9.91, 19.34 6.11 M2.51 32.3 C12.71 17.89, 14.55 11.98, 24.05 -0.09 M1.33 30.67 C6.87 22.74, 14.96 15.69, 27.2 0.27 M-0.62 32.64 C15.8 21.17, 21.85 9.22, 31.1 0.49 M1.01 37.78 C9.33 26.76, 19.57 16.33, 31.86 3.57 M-0.25 41.48 C11.18 33.54, 20.7 16.98, 36.79 6.16 M2.51 41.16 C10.93 33.87, 20.91 23.11, 36.48 2.21 M5.7 43.12 C10.91 30.13, 22.09 25.1, 38.33 2.88 M2.59 45.77 C15.8 30.01, 28.24 16.45, 41.72 6.51 M4.66 49.51 C20.85 35.48, 32.3 25.21, 43.61 3.06 M4.86 51.19 C16.69 36.14, 32.08 21.09, 45.43 7.22 M7.27 53.79 C21.75 38.36, 33.78 27.45, 49.82 10.78 M6.71 56.16 C21.88 39.91, 31.5 26.18, 50.33 7.77 M8.27 54.82 C24.19 45.52, 33.59 33.57, 52.14 13.34 M13.13 58.1 C21.38 42.36, 31.82 29.84, 53.64 10.7 M18.98 55.63 C23.8 46.22, 32.05 34.18, 57.05 15.45 M14.25 58.57 C25.48 50.26, 35.16 39.47, 53.42 15 M20.08 62.95 C33.81 45.17, 44.34 31.28, 58.33 15.51 M19.05 61.81 C32.45 45.32, 49.45 26.24, 57.54 15.29 M21.5 58.91 C34.87 56.25, 40.45 41.13, 62.42 20.36 M20.34 61.42 C32.03 52.63, 42.54 40.55, 58.09 19.58 M29.84 66.1 C37.77 51.58, 45.78 43.23, 59.06 26.53 M27.1 64.43 C35.95 52.95, 45.5 37.8, 62.99 21.59 M33.7 66.31 C37.57 58.36, 46.86 49.29, 62.02 27.74 M30.83 61.05 C43.47 53.17, 50.09 41.94, 61.69 27.15 M38.97 61.01 C47.61 57.9, 51.54 44.12, 65.02 34.66 M37.91 64.11 C47.26 51.98, 58.89 42.04, 62.14 37.02 M47.54 60.6 C49.51 58.7, 53.42 48.15, 62.36 37.85 M45.18 61.37 C48.56 55.44, 54.08 52.4, 60.42 40.85 M4.18 51.59 C4.18 51.59, 4.18 51.59, 4.18 51.59 M4.18 51.59 C4.18 51.59, 4.18 51.59, 4.18 51.59 M27.52 59.97 C16.27 55.8, 8.91 49.26, 1.55 42.17 M24.75 63.61 C17.93 59.32, 12.41 51.47, 1.94 46.14 M32.38 60.11 C25.25 59.66, 20.45 54.85, 4.72 37.46 M27.96 61.8 C23.8 54.43, 16.23 49.05, 3.84 39.16 M37.38 58.9 C24.51 56.01, 24.19 53.99, 0.17 31.83 M33.68 61.58 C26.21 52.28, 18.03 45.6, 1.65 33.24 M38.61 62.07 C28.75 50.35, 18.99 47.05, -1.32 30.13 M42.2 60.88 C29.55 55.58, 22.68 47.54, 3.05 28.24 M45.84 64.65 C29.52 45.28, 15.74 38.56, -0.53 21.16 M43.45 62.52 C33.87 50.76, 25.12 42.04, 3.14 24.5 M48.53 60.98 C43.51 47.48, 33.63 39.61, 7.68 23.78 M50.03 57.12 C38.41 48.04, 29.49 39.62, 4.91 21.97 M47.35 56.04 C40.38 41.45, 23.62 32.92, 6.41 14.12 M51.67 55.49 C40.05 47.36, 31.26 36.48, 6.28 16.36 M50.64 50.11 C39.63 43.5, 31.21 30.26, 8.44 13.6 M54.81 54.27 C41.51 42.31, 31.15 35.71, 6.79 12.25 M55.67 48.13 C43.18 35.59, 19.4 22.56, 14.23 10.99 M54.75 50.28 C41.19 37.64, 26.14 23.1, 8.68 10.07 M55.43 46.35 C45.38 38.43, 33.49 26.31, 10.69 5 M57.46 48.19 C46.01 35.28, 36.33 27, 14.58 5.74 M61.3 42.99 C49.54 27.97, 31.82 21.7, 16.43 5.68 M61.32 44.17 C53.1 36.28, 45.21 30.1, 15.76 5.03 M63.87 35.65 C50.33 29.71, 43.06 21.7, 21.44 2.38 M60.84 40.31 C53.84 28.48, 43.83 19.73, 22.92 4.56 M66.19 33.15 C58 29.85, 44.73 18.85, 28.97 1.13 M62.98 33.42 C55.44 27.02, 48.07 20.27, 26.89 2.14 M63.96 32.97 C48.83 15.01, 37.64 4.6, 27.9 1.22 M62.34 29.56 C50.92 16.22, 39.73 5.85, 30.17 -1.59 M61.84 25.29 C56.76 13.61, 44.79 9.19, 35.37 1.23 M64.4 24.95 C55.92 17.02, 47.23 9.4, 36.45 -0.22" stroke="#495057" stroke-width="0.5" fill="none"></path><path d="M28.25 1.4 C34.25 0.46, 43.35 2.53, 49.11 6.38 C54.87 10.23, 60.84 18.06, 62.82 24.5 C64.8 30.93, 63.94 38.83, 61.01 45 C58.08 51.17, 51.47 58.37, 45.24 61.49 C39.01 64.61, 30.41 65.3, 23.61 63.69 C16.82 62.08, 8.28 57.77, 4.46 51.83 C0.63 45.88, -0.42 35.23, 0.64 28.02 C1.69 20.81, 4.42 13.3, 10.78 8.55 C17.13 3.79, 32.02 -0.22, 38.77 -0.52 C45.51 -0.83, 50.98 5.65, 51.24 6.72 M3.4 13.7 C5.71 8.4, 12.72 5.06, 19.93 2.91 C27.14 0.75, 39.79 -1.6, 46.65 0.8 C53.52 3.2, 58.32 10.77, 61.1 17.3 C63.88 23.84, 65.54 33.4, 63.33 40.02 C61.12 46.64, 53.98 53.17, 47.82 57.03 C41.67 60.88, 32.36 63.75, 26.4 63.16 C20.45 62.56, 16.3 57.66, 12.1 53.45 C7.89 49.24, 2.63 44.98, 1.16 37.91 C-0.31 30.85, 2.94 14.69, 3.29 11.08 C3.64 7.46, 2.35 15.11, 3.27 16.23" stroke="transparent" stroke-width="1" fill="none"></path></g><g stroke-linecap="round"><g transform="translate(36.651127639654874 19.107324833553264) rotate(313.88261837733137 9.85627731127397 27.92610860452416)"><path d="M0.48 -0.94 C3.43 8.57, 15.49 47.03, 18.57 56.34 M-0.73 1.18 C2.49 10.39, 16.99 45.39, 20.69 54.48" stroke="#f08c00" stroke-width="1" fill="none"></path></g></g><mask></mask><g stroke-linecap="round"><g transform="translate(125.08416646503701 -16.076352213806956) rotate(308.257855849429 14.8756578223107 39.24534636945771)"><path d="M-1.14 0.49 C3.62 13.57, 23.93 64.65, 29 77.56 M0.47 -0.3 C5.56 12.99, 26.68 65.39, 31.32 78.61" stroke="#f08c00" stroke-width="1" fill="none"></path></g></g><mask></mask><g stroke-linecap="round" transform="translate(227.10101933004307 49.10980684790974) rotate(0 2.5814019127291203 2.816080510660157)"><path d="M0.7 0.61 C0.7 0.61, 0.7 0.61, 0.7 0.61 M0.7 0.61 C0.7 0.61, 0.7 0.61, 0.7 0.61 M1.75 5.49 C2.45 4.82, 3.25 3.8, 5.03 1.72 M1.75 5.49 C2.74 4.37, 3.65 3.32, 5.03 1.72" stroke="#be4bdb" stroke-width="0.5" fill="none"></path><path d="M2.25 -0.08 C2.78 -0.13, 3.54 0.01, 4.03 0.38 C4.52 0.75, 5 1.53, 5.18 2.13 C5.36 2.73, 5.34 3.43, 5.11 3.97 C4.89 4.52, 4.33 5.14, 3.83 5.41 C3.32 5.68, 2.62 5.81, 2.07 5.59 C1.52 5.37, 0.82 4.56, 0.53 4.08 C0.24 3.6, 0.27 3.3, 0.3 2.72 C0.34 2.13, 0.42 1.03, 0.73 0.57 C1.04 0.11, 1.87 0.03, 2.19 -0.03 C2.5 -0.1, 2.55 0.13, 2.62 0.19 M3.07 -0.11 C3.61 -0.17, 3.49 -0.17, 3.89 0.32 C4.29 0.81, 5.28 2.14, 5.45 2.81 C5.63 3.47, 5.33 3.9, 4.94 4.31 C4.55 4.72, 3.61 5.1, 3.13 5.27 C2.65 5.43, 2.5 5.56, 2.07 5.3 C1.64 5.03, 0.82 4.12, 0.53 3.67 C0.25 3.22, 0.3 3.01, 0.37 2.58 C0.44 2.15, 0.54 1.52, 0.98 1.08 C1.42 0.65, 2.72 0.15, 2.99 -0.03 C3.26 -0.22, 2.69 -0.03, 2.58 -0.02" stroke="#495057" stroke-width="1" fill="none"></path></g><g stroke-linecap="round" transform="translate(129.9462461883047 58.96609311125707) rotate(0 4.224125242026844 4.693464533742514)"><path d="M0.74 1.97 C0.74 1.97, 0.74 1.97, 0.74 1.97 M0.74 1.97 C0.74 1.97, 0.74 1.97, 0.74 1.97 M1.13 7.61 C2.37 6.19, 3.61 4.76, 7.04 0.82 M1.13 7.61 C3.14 5.3, 5.15 2.98, 7.04 0.82 M4.81 9.48 C6.32 7.73, 7.84 5.99, 8.74 4.95 M4.81 9.48 C6.01 8.1, 7.21 6.72, 8.74 4.95" stroke="#868e96" stroke-width="0.5" fill="none"></path><path d="M8.45 4.69 C8.45 4.97, 8.43 5.24, 8.38 5.51 C8.34 5.78, 8.28 6.04, 8.19 6.3 C8.11 6.55, 8 6.8, 7.88 7.04 C7.76 7.28, 7.62 7.5, 7.46 7.71 C7.3 7.92, 7.13 8.11, 6.94 8.29 C6.75 8.46, 6.55 8.62, 6.34 8.76 C6.12 8.89, 5.9 9.01, 5.67 9.1 C5.44 9.2, 5.2 9.27, 4.96 9.32 C4.72 9.36, 4.47 9.39, 4.22 9.39 C3.98 9.39, 3.73 9.36, 3.49 9.32 C3.25 9.27, 3.01 9.2, 2.78 9.1 C2.55 9.01, 2.32 8.89, 2.11 8.76 C1.9 8.62, 1.7 8.46, 1.51 8.29 C1.32 8.11, 1.15 7.92, 0.99 7.71 C0.83 7.5, 0.69 7.28, 0.57 7.04 C0.44 6.8, 0.34 6.55, 0.25 6.3 C0.17 6.04, 0.11 5.78, 0.06 5.51 C0.02 5.24, 0 4.97, 0 4.69 C0 4.42, 0.02 4.15, 0.06 3.88 C0.11 3.61, 0.17 3.34, 0.25 3.09 C0.34 2.83, 0.44 2.58, 0.57 2.35 C0.69 2.11, 0.83 1.88, 0.99 1.68 C1.15 1.47, 1.32 1.27, 1.51 1.1 C1.7 0.92, 1.9 0.76, 2.11 0.63 C2.32 0.49, 2.55 0.38, 2.78 0.28 C3.01 0.19, 3.25 0.12, 3.49 0.07 C3.73 0.02, 3.98 0, 4.22 0 C4.47 0, 4.72 0.02, 4.96 0.07 C5.2 0.12, 5.44 0.19, 5.67 0.28 C5.9 0.38, 6.12 0.49, 6.34 0.63 C6.55 0.76, 6.75 0.92, 6.94 1.1 C7.13 1.27, 7.3 1.47, 7.46 1.68 C7.62 1.88, 7.76 2.11, 7.88 2.35 C8 2.58, 8.11 2.83, 8.19 3.09 C8.28 3.34, 8.34 3.61, 8.38 3.88 C8.43 4.15, 8.44 4.56, 8.45 4.69 C8.46 4.83, 8.46 4.56, 8.45 4.69" stroke="#495057" stroke-width="1" fill="none"></path></g><g stroke-linecap="round" transform="translate(171.71805189197994 55.21130716094609) rotate(0 4.224125242026844 4.693464533742514)"><path d="M0.74 1.97 C0.74 1.97, 0.74 1.97, 0.74 1.97 M0.74 1.97 C0.74 1.97, 0.74 1.97, 0.74 1.97 M1.13 7.61 C3.28 5.14, 5.42 2.67, 7.04 0.82 M1.13 7.61 C3.1 5.34, 5.07 3.08, 7.04 0.82 M4.81 9.48 C5.68 8.48, 6.54 7.48, 8.74 4.95 M4.81 9.48 C5.82 8.32, 6.83 7.15, 8.74 4.95" stroke="#868e96" stroke-width="0.5" fill="none"></path><path d="M8.45 4.69 C8.45 4.97, 8.43 5.24, 8.38 5.51 C8.34 5.78, 8.28 6.04, 8.19 6.3 C8.11 6.55, 8 6.8, 7.88 7.04 C7.76 7.28, 7.62 7.5, 7.46 7.71 C7.3 7.92, 7.13 8.11, 6.94 8.29 C6.75 8.46, 6.55 8.62, 6.34 8.76 C6.12 8.89, 5.9 9.01, 5.67 9.1 C5.44 9.2, 5.2 9.27, 4.96 9.32 C4.72 9.36, 4.47 9.39, 4.22 9.39 C3.98 9.39, 3.73 9.36, 3.49 9.32 C3.25 9.27, 3.01 9.2, 2.78 9.1 C2.55 9.01, 2.32 8.89, 2.11 8.76 C1.9 8.62, 1.7 8.46, 1.51 8.29 C1.32 8.11, 1.15 7.92, 0.99 7.71 C0.83 7.5, 0.69 7.28, 0.57 7.04 C0.44 6.8, 0.34 6.55, 0.25 6.3 C0.17 6.04, 0.11 5.78, 0.06 5.51 C0.02 5.24, 0 4.97, 0 4.69 C0 4.42, 0.02 4.15, 0.06 3.88 C0.11 3.61, 0.17 3.34, 0.25 3.09 C0.34 2.83, 0.44 2.58, 0.57 2.35 C0.69 2.11, 0.83 1.88, 0.99 1.68 C1.15 1.47, 1.32 1.27, 1.51 1.1 C1.7 0.92, 1.9 0.76, 2.11 0.63 C2.32 0.49, 2.55 0.38, 2.78 0.28 C3.01 0.19, 3.25 0.12, 3.49 0.07 C3.73 0.02, 3.98 0, 4.22 0 C4.47 0, 4.72 0.02, 4.96 0.07 C5.2 0.12, 5.44 0.19, 5.67 0.28 C5.9 0.38, 6.12 0.49, 6.34 0.63 C6.55 0.76, 6.75 0.92, 6.94 1.1 C7.13 1.27, 7.3 1.47, 7.46 1.68 C7.62 1.88, 7.76 2.11, 7.88 2.35 C8 2.58, 8.11 2.83, 8.19 3.09 C8.28 3.34, 8.34 3.61, 8.38 3.88 C8.43 4.15, 8.44 4.56, 8.45 4.69 C8.46 4.83, 8.46 4.56, 8.45 4.69" stroke="#495057" stroke-width="1" fill="none"></path></g><g stroke-linecap="round" transform="translate(74.09406478755045 57.55803942781728) rotate(0 2.5814019127291203 2.816080510660157)"><path d="M0.93 0.81 C0.93 0.81, 0.93 0.81, 0.93 0.81 M0.93 0.81 C0.93 0.81, 0.93 0.81, 0.93 0.81 M1.98 5.7 C2.76 4.89, 3.52 3.91, 5.26 1.92 M1.98 5.7 C2.79 4.77, 3.55 3.93, 5.26 1.92" stroke="#be4bdb" stroke-width="0.5" fill="none"></path><path d="M2.58 -0.08 C3.12 -0.16, 3.83 0.16, 4.28 0.53 C4.73 0.91, 5.17 1.64, 5.29 2.17 C5.41 2.7, 5.24 3.14, 5.01 3.71 C4.79 4.28, 4.48 5.32, 3.95 5.58 C3.42 5.85, 2.46 5.52, 1.84 5.32 C1.21 5.12, 0.48 4.83, 0.2 4.39 C-0.08 3.95, 0.03 3.28, 0.15 2.7 C0.26 2.11, 0.49 1.37, 0.87 0.87 C1.26 0.37, 2.21 -0.24, 2.45 -0.33 C2.7 -0.41, 2.35 0.29, 2.33 0.34 M2.41 0.05 C2.83 -0.17, 3.19 -0.07, 3.7 0.23 C4.21 0.53, 5.23 1.31, 5.47 1.84 C5.72 2.37, 5.41 2.78, 5.18 3.41 C4.95 4.04, 4.61 5.2, 4.08 5.63 C3.56 6.07, 2.56 6.22, 2.02 6.03 C1.49 5.84, 1.22 5.06, 0.88 4.49 C0.53 3.92, 0.03 3.24, -0.06 2.6 C-0.15 1.97, -0.11 1.18, 0.35 0.67 C0.81 0.16, 2.39 -0.37, 2.71 -0.47 C3.04 -0.56, 2.42 -0.07, 2.29 0.1" stroke="#495057" stroke-width="1" fill="none"></path></g><g stroke-linecap="round"><g transform="translate(10.460698414748322 42.22738545017529) rotate(4.941555107459202 4.273580923524378 -3.35778197607587)"><path d="M-0.18 0.1 C1.26 -0.97, 7.09 -5.38, 8.53 -6.48 M0.37 -0.15 C1.77 -1.31, 6.94 -5.84, 8.24 -6.99" stroke="#495057" stroke-width="1" fill="none"></path></g></g><mask></mask><g stroke-linecap="round"><g transform="translate(92.56163876012101 19.112644046503817) rotate(4.32520899080331 4.273580923524378 -3.35778197607587)"><path d="M-0.02 0.23 C1.42 -0.87, 7.02 -5.37, 8.45 -6.49 M-0.46 0.04 C0.94 -1.16, 6.66 -5.82, 8.12 -7" stroke="#495057" stroke-width="1" fill="none"></path></g></g><mask></mask><g stroke-linecap="round"><g transform="translate(135.98616330507707 60.64822420319456) rotate(0 20.007070890352566 -3.596997491778666)"><path d="M-0.48 -0.24 C2.46 -1.65, 11.08 -7.14, 17.81 -7.74 C24.53 -8.33, 35.98 -4.61, 39.87 -3.81 M1.47 -1.41 C4.79 -2.74, 13.93 -6.25, 20.19 -6.49 C26.46 -6.73, 36 -3.65, 39.03 -2.86" stroke="#f08c00" stroke-width="2" fill="none"></path></g></g><mask></mask></svg>