<svg version="1.1" xmlns="http://www.w3.org/2000/svg" viewBox="0 0 114.35781720638306 67.98210628581076" width="343.0734516191492" height="203.9463188574323">
  <!-- svg-source:excalidraw -->
  
  <defs>
    <style class="style-fonts">
      
    </style>
    
  </defs>
  <g stroke-linecap="round"><g transform="translate(14.041064522266424 8.77309810519219) rotate(0 43.19999694824219 0.8000030517578125)"><path d="M1.65 2.48 C16.17 2.79, 71.19 1.56, 85.23 1.23 M-0.9 1.35 C13.32 2.17, 68.25 4.38, 82.36 4.65" stroke="#000000" stroke-width="4" fill="none"></path></g></g><mask></mask><g stroke-linecap="round"><g transform="translate(14.464178422689656 31.49355657555165) rotate(0 43.19999694824219 0.8000030517578125)"><path d="M-1.17 -0.37 C12.87 -0.7, 71.58 0.33, 85.89 0.5 M3.4 -3.04 C16.87 -1.78, 68.84 2.48, 83.37 3.53" stroke="#000000" stroke-width="4" fill="none"></path></g></g><mask></mask><g stroke-linecap="round"><g transform="translate(14.236408809870682 54.22276933577686) rotate(0 43.19999694824219 0.8000030517578125)"><path d="M-0.51 -1.1 C13.79 -0.93, 69.97 -0.16, 84.66 0.65 M-4.24 -4.17 C11.08 -3.57, 75 3.17, 90.12 3.76" stroke="#000000" stroke-width="4" fill="none"></path></g></g><mask></mask></svg>