<svg version="1.1" xmlns="http://www.w3.org/2000/svg" viewBox="0 0 57.01867283902206 69.51073495614105" width="171.05601851706618" height="208.53220486842315" filter="invert(93%) hue-rotate(180deg)">
  <!-- svg-source:excalidraw -->
  
  <defs>
    <style class="style-fonts">
      
    </style>
    
  </defs>
  <g stroke-linecap="round"><g transform="translate(13.950384992495117 12.357081829032381) rotate(0 14.261622046022111 23.33231996428026)" fill-rule="evenodd"><path d="M-1.57 1.72 C3.58 1.91, 25.62 -4.24, 31.26 2.88 C36.9 10.01, 34.58 40.2, 32.28 44.5 C29.97 48.8, 22.75 28.44, 17.43 28.67 C12.11 28.89, 3.48 50.24, 0.37 45.85 C-2.75 41.46, -1.18 9.92, -1.24 2.32" stroke="none" stroke-width="0" fill="#ffffff" fill-rule="evenodd"></path><path d="M1.07 1.02 C5.97 1.28, 24.68 -6.58, 29.67 0.84 C34.65 8.26, 33.31 40.75, 30.98 45.54 C28.66 50.32, 21.15 29.55, 15.7 29.55 C10.26 29.56, 1.13 50.67, -1.68 45.56 C-4.49 40.45, -1.37 6.37, -1.16 -1.1 M0.17 0.51 C4.88 1.03, 23.61 -5.39, 28.68 2.3 C33.76 9.99, 32.79 42.48, 30.63 46.65 C28.47 50.82, 21.37 27.53, 15.74 27.31 C10.11 27.1, -0.48 49.76, -3.16 45.37 C-5.84 40.97, -0.88 8.54, -0.36 0.94" stroke="#000000" stroke-width="2" fill="none"></path></g></g><mask></mask></svg>