<svg version="1.1" xmlns="http://www.w3.org/2000/svg" viewBox="0 0 67.2527685293673 122.67861080539672" width="201.7583055881019" height="368.03583241619015" filter="invert(93%) hue-rotate(180deg)">
  <!-- svg-source:excalidraw -->
  
  <defs>
    <style class="style-fonts">
      
    </style>
    
  </defs>
  <g stroke-linecap="round"><g transform="translate(47.08292526901914 11.234563421881262) rotate(0 -16.578121474593615 9.946872884756147)" fill-rule="evenodd"><path d="M-0.92 -0.7 L-32.84 18.13 L-18.86 20.66 L-0.21 8.68 L0.57 1.86" stroke="none" stroke-width="0" fill="#ced4da" fill-rule="evenodd"></path><path d="M0 0 C-8.45 5.43, -17.47 9.45, -33.53 17.52 M0 0 C-12.86 6.52, -25.22 12.89, -33.53 17.52 M-33.53 17.52 C-27.59 18.15, -22.53 19.34, -18.14 19.89 M-33.53 17.52 C-27.85 18.77, -21.58 19.03, -18.14 19.89 M-18.14 19.89 C-13.34 18.02, -10.67 14.42, 0.38 7.88 M-18.14 19.89 C-10.92 15.87, -4.63 10.98, 0.38 7.88 M0.38 7.88 C0.16 5.65, 0.37 3.92, 0.25 1.38 M0.38 7.88 C0.34 5.82, 0.22 4.03, 0.25 1.38 M0.25 1.38 C0.25 1.07, 0.19 0.79, 0 0 M0.25 1.38 C0.2 1.01, 0.12 0.6, 0 0" stroke="transparent" stroke-width="2" fill="none"></path></g></g><mask></mask><g stroke-linecap="round"><g transform="translate(47.082925269019256 10) rotate(0 -13.137379281753454 50.92298445403463)"><path d="M0 0 C-6.37 4.13, -13.49 9.22, -35.53 16.77 M0 0 C-11.27 4.43, -22.26 11.04, -35.53 16.77 M-35.53 16.77 C-37.41 36.66, -34.01 55.27, -36.41 96.09 M-35.53 16.77 C-36.96 46.06, -37.72 77.27, -36.41 96.09 M-36.41 96.09 C-36.18 96.52, -35.53 96.85, -35.16 97.72 M-36.41 96.09 C-36.03 96.61, -35.56 97.19, -35.16 97.72 M-35.16 97.72 C-28.51 99.74, -22.78 100.93, -17.52 101.85 M-35.16 97.72 C-31.68 98.83, -28.03 100.3, -17.52 101.85 M-17.52 101.85 C-13.52 99.52, -12.58 96.99, -5.51 88.08 M-17.52 101.85 C-13.99 98.18, -12.16 93.93, -5.51 88.08 M-5.51 88.08 C1.38 81.72, 6.9 78.22, 9.26 73.69 M-5.51 88.08 C-0.73 82.23, 4.94 77.43, 9.26 73.69 M9.26 73.69 C8.4 48.23, 10.46 21.73, 10.13 1.25 M9.26 73.69 C8.86 51.62, 9.22 30.41, 10.13 1.25 M10.13 1.25 C3.93 5.89, -1.73 7.94, -17.64 20.64 M10.13 1.25 C-1.12 10.02, -12.24 16.01, -17.64 20.64 M-17.64 20.64 C-25.17 21.33, -31.34 18.83, -34.41 18.14 M-17.64 20.64 C-23 19.59, -29.89 19.22, -34.41 18.14 M-34.41 18.14 C-25.79 12.06, -14.71 9.07, 0 0 M-34.41 18.14 C-21.82 12.02, -9.59 4.45, 0 0" stroke="#343a40" stroke-width="2" fill="none"></path></g></g><mask></mask><g stroke-linecap="round"><g transform="translate(47.208043166941195 10.859209728116866) rotate(0 0.18767684688219788 3.5033011418009323)"><path d="M0 0 C0.34 2.89, 0.36 5.28, 0.38 7.01 M0 0 C0.2 1.91, 0.15 3.76, 0.38 7.01" stroke="#343a40" stroke-width="2" fill="none"></path></g></g><mask></mask><g stroke-linecap="round" transform="translate(16.574645625673327 87.55370392411544) rotate(344.5603544646815 3.565860090761632 4.0181697108163235)"><path d="M3.96 -0.28 C4.61 -0.23, 5.35 0.84, 5.91 1.47 C6.47 2.1, 7.2 2.73, 7.33 3.52 C7.46 4.3, 7.14 5.45, 6.7 6.2 C6.25 6.95, 5.44 7.74, 4.68 8.03 C3.92 8.32, 2.89 8.33, 2.15 7.92 C1.4 7.51, 0.59 6.38, 0.21 5.56 C-0.17 4.74, -0.34 3.77, -0.15 2.99 C0.04 2.22, 0.69 1.35, 1.36 0.9 C2.03 0.45, 3.48 0.4, 3.89 0.3 C4.3 0.2, 3.81 0.25, 3.83 0.3 M3.38 -0.1 C4.05 -0.05, 5.17 0.63, 5.72 1.17 C6.27 1.71, 6.55 2.31, 6.66 3.12 C6.77 3.93, 6.69 5.22, 6.4 6.01 C6.11 6.8, 5.66 7.48, 4.92 7.86 C4.18 8.23, 2.76 8.48, 1.95 8.25 C1.13 8.02, 0.34 7.23, 0.01 6.48 C-0.32 5.73, -0.21 4.74, -0.03 3.76 C0.14 2.78, 0.41 1.15, 1.07 0.58 C1.74 0.01, 3.45 0.48, 3.94 0.34 C4.43 0.2, 4 -0.24, 4.01 -0.29" stroke="none" stroke-width="0" fill="#ced4da"></path><path d="M3.02 0.28 C3.78 0.12, 5.09 0.16, 5.76 0.6 C6.44 1.04, 6.95 2.05, 7.07 2.91 C7.19 3.77, 6.77 5.01, 6.48 5.77 C6.19 6.52, 5.94 7.15, 5.33 7.45 C4.73 7.75, 3.58 7.79, 2.85 7.57 C2.12 7.36, 1.45 6.86, 0.93 6.15 C0.42 5.45, -0.28 4.18, -0.23 3.34 C-0.18 2.5, 0.58 1.61, 1.23 1.1 C1.88 0.59, 3.31 0.44, 3.65 0.26 C3.99 0.08, 3.28 0.05, 3.28 0.03 M3.54 -0.02 C4.22 -0.08, 5.41 0.68, 6.05 1.23 C6.68 1.77, 7.34 2.42, 7.37 3.27 C7.4 4.12, 6.68 5.56, 6.24 6.32 C5.8 7.08, 5.41 7.67, 4.74 7.84 C4.07 8.01, 2.95 7.73, 2.23 7.33 C1.51 6.93, 0.81 6.13, 0.42 5.43 C0.02 4.74, -0.26 3.86, -0.16 3.15 C-0.06 2.43, 0.43 1.6, 1.02 1.15 C1.61 0.69, 2.91 0.52, 3.36 0.41 C3.82 0.3, 3.65 0.49, 3.75 0.48" stroke="#495057" stroke-width="2" fill="none"></path></g><g stroke-linecap="round"><g transform="translate(31.067834335071893 79.63406745259465) rotate(0 1.751650570900452 -0.3534258147472542)" fill-rule="evenodd"><path d="M0.21 0.32 L0.35 2.32 L3.47 -1.09 L3.96 -3.66 L0.44 -0.26" stroke="none" stroke-width="0" fill="#ced4da" fill-rule="evenodd"></path><path d="M0 0 C-0.12 1, -0.27 2.01, -0.25 2.5 M0 0 C-0.1 0.79, -0.17 1.69, -0.25 2.5 M-0.25 2.5 C0.79 1.77, 1.4 1.01, 3.63 -0.5 M-0.25 2.5 C1.14 1.41, 2.4 0.49, 3.63 -0.5 M3.63 -0.5 C3.73 -1.11, 3.67 -1.64, 3.75 -3.21 M3.63 -0.5 C3.64 -1.38, 3.72 -2.29, 3.75 -3.21 M3.75 -3.21 C2.44 -2.29, 1.43 -1.35, 0 0 M3.75 -3.21 C2.37 -1.96, 1.03 -0.86, 0 0 M0 0 C0 0, 0 0, 0 0 M0 0 C0 0, 0 0, 0 0" stroke="#495057" stroke-width="2" fill="none"></path></g></g><mask></mask><g stroke-linecap="round"><g transform="translate(31.318620224765937 59.19618402089782) rotate(0 1.751650570900452 -0.3534258147472542)" fill-rule="evenodd"><path d="M0.6 -0.18 L-0.41 1.91 L3.83 -0.95 L4.19 -3.47 L0.53 -0.49" stroke="none" stroke-width="0" fill="#ced4da" fill-rule="evenodd"></path><path d="M0 0 C-0.14 0.71, -0.11 1.25, -0.25 2.5 M0 0 C-0.08 0.82, -0.19 1.6, -0.25 2.5 M-0.25 2.5 C0.42 1.76, 1.42 1.25, 3.63 -0.5 M-0.25 2.5 C1.17 1.45, 2.56 0.3, 3.63 -0.5 M3.63 -0.5 C3.66 -1.48, 3.74 -2.44, 3.75 -3.21 M3.63 -0.5 C3.68 -1.18, 3.7 -1.88, 3.75 -3.21 M3.75 -3.21 C2.61 -2.37, 1.57 -1.39, 0 0 M3.75 -3.21 C2.36 -1.99, 0.95 -0.78, 0 0 M0 0 C0 0, 0 0, 0 0 M0 0 C0 0, 0 0, 0 0" stroke="#495057" stroke-width="2" fill="none"></path></g></g><mask></mask><g stroke-linecap="round"><g transform="translate(14.917973114765175 34.71630324050852) rotate(0 5.320718812890831 23.620013421711747)" fill-rule="evenodd"><path d="M-0.23 -0.88 L11.34 1.21 L11.3 46.84 L0.4 44.12 L0.12 0.93" stroke="none" stroke-width="0" fill="#ced4da" fill-rule="evenodd"></path><path d="M0 0 C3.8 0.31, 7.34 0.98, 11.04 1.89 M0 0 C2.14 0.57, 4.42 1.02, 11.04 1.89 M11.04 1.89 C11.19 13.78, 11.39 26.63, 10.64 47.24 M11.04 1.89 C10.47 12.47, 11.15 23.18, 10.64 47.24 M10.64 47.24 C7.95 46.93, 4.62 45.64, -0.4 44.85 M10.64 47.24 C7.09 46.25, 3.5 45.46, -0.4 44.85 M-0.4 44.85 C0.26 33.03, 0.4 22.76, -0.4 0.8 M-0.4 44.85 C-0.14 27.99, -0.16 11.86, -0.4 0.8 M-0.4 0.8 C-0.29 0.55, -0.09 0.21, 0 0 M-0.4 0.8 C-0.24 0.51, -0.08 0.19, 0 0" stroke="#000000" stroke-width="1" fill="none"></path></g></g><mask></mask><g stroke-linecap="round"><g transform="translate(16.62642822090612 54.85192069730374) rotate(0 3.530570427245351 0.39781075236567176)"><path d="M0 0 C2.71 0.22, 5.15 0.61, 7.06 0.8 M0 0 C2.66 0.41, 5.51 0.52, 7.06 0.8" stroke="#000000" stroke-width="1" fill="none"></path></g></g><mask></mask><g stroke-linecap="round"><g transform="translate(16.260584403998337 61.91306155179416) rotate(0 3.530570427245351 0.39781075236567176)"><path d="M0 0 C1.57 0.2, 3.77 0.24, 7.06 0.8 M0 0 C2.63 0.19, 5.25 0.63, 7.06 0.8" stroke="#000000" stroke-width="1" fill="none"></path></g></g><mask></mask><g stroke-linecap="round"><g transform="translate(16.615772575753397 69.63485240574926) rotate(0 3.530570427245351 0.39781075236567176)"><path d="M0 0 C2.06 0.04, 3.86 0.2, 7.06 0.8 M0 0 C2.7 0.38, 5.58 0.73, 7.06 0.8" stroke="#000000" stroke-width="1" fill="none"></path></g></g><mask></mask><g stroke-linecap="round"><g transform="translate(17.05265402701184 47.46400672479808) rotate(0 3.530570427245351 0.39781075236567176)"><path d="M0 0 C2.29 0.03, 4.43 0.4, 7.06 0.8 M0 0 C1.58 0.26, 3.27 0.27, 7.06 0.8" stroke="#000000" stroke-width="1" fill="none"></path></g></g><mask></mask><g stroke-linecap="round"><g transform="translate(28.5423005692993 31.64784554221012) rotate(0.9326396122069769 0.6968596306295183 40.5123947647175)"><path d="M0 0 C2.88 17.9, -0.22 35.65, 1.39 81.02 M0 0 C1.18 27.07, 0.72 56.25, 1.39 81.02" stroke="#000000" stroke-width="1" fill="none"></path></g></g><mask></mask></svg>