<svg version="1.1" xmlns="http://www.w3.org/2000/svg" viewBox="0 0 65.80957112517262 64.37613447615314" width="197.42871337551787" height="193.12840342845942" filter="invert(93%) hue-rotate(180deg)">
  <!-- svg-source:excalidraw -->
  
  <defs>
    <style class="style-fonts">
      
    </style>
    
  </defs>
  <g stroke-linecap="round" transform="translate(10.36067178133385 10) rotate(0 5.479515597999637 5.479515597999637)"><path d="M10.96 5.48 C10.96 5.8, 10.93 6.12, 10.88 6.43 C10.82 6.74, 10.74 7.06, 10.63 7.35 C10.52 7.65, 10.38 7.94, 10.22 8.22 C10.07 8.49, 9.88 8.76, 9.68 9 C9.47 9.24, 9.24 9.47, 9 9.68 C8.76 9.88, 8.49 10.07, 8.22 10.22 C7.94 10.38, 7.65 10.52, 7.35 10.63 C7.06 10.74, 6.74 10.82, 6.43 10.88 C6.12 10.93, 5.8 10.96, 5.48 10.96 C5.16 10.96, 4.84 10.93, 4.53 10.88 C4.22 10.82, 3.9 10.74, 3.61 10.63 C3.31 10.52, 3.01 10.38, 2.74 10.22 C2.47 10.07, 2.2 9.88, 1.96 9.68 C1.71 9.47, 1.49 9.24, 1.28 9 C1.08 8.76, 0.89 8.49, 0.73 8.22 C0.58 7.94, 0.44 7.65, 0.33 7.35 C0.22 7.06, 0.14 6.74, 0.08 6.43 C0.03 6.12, 0 5.8, 0 5.48 C0 5.16, 0.03 4.84, 0.08 4.53 C0.14 4.22, 0.22 3.9, 0.33 3.61 C0.44 3.31, 0.58 3.01, 0.73 2.74 C0.89 2.47, 1.08 2.2, 1.28 1.96 C1.49 1.71, 1.71 1.49, 1.96 1.28 C2.2 1.08, 2.47 0.89, 2.74 0.73 C3.01 0.58, 3.31 0.44, 3.61 0.33 C3.9 0.22, 4.22 0.14, 4.53 0.08 C4.84 0.03, 5.16 0, 5.48 0 C5.8 0, 6.12 0.03, 6.43 0.08 C6.74 0.14, 7.06 0.22, 7.35 0.33 C7.65 0.44, 7.94 0.58, 8.22 0.73 C8.49 0.89, 8.76 1.08, 9 1.28 C9.24 1.49, 9.47 1.71, 9.68 1.96 C9.88 2.2, 10.07 2.47, 10.22 2.74 C10.38 3.01, 10.52 3.31, 10.63 3.61 C10.74 3.9, 10.82 4.22, 10.88 4.53 C10.93 4.84, 10.95 5.32, 10.96 5.48 C10.97 5.64, 10.97 5.32, 10.96 5.48" stroke="#1e1e1e" stroke-width="2" fill="none"></path></g><g stroke-linecap="round" transform="translate(10 26.584093293810724) rotate(0 5.479515597999637 5.479515597999637)"><path d="M10.96 5.48 C10.96 5.8, 10.93 6.12, 10.88 6.43 C10.82 6.74, 10.74 7.06, 10.63 7.35 C10.52 7.65, 10.38 7.94, 10.22 8.22 C10.07 8.49, 9.88 8.76, 9.68 9 C9.47 9.24, 9.24 9.47, 9 9.68 C8.76 9.88, 8.49 10.07, 8.22 10.22 C7.94 10.38, 7.65 10.52, 7.35 10.63 C7.06 10.74, 6.74 10.82, 6.43 10.88 C6.12 10.93, 5.8 10.96, 5.48 10.96 C5.16 10.96, 4.84 10.93, 4.53 10.88 C4.22 10.82, 3.9 10.74, 3.61 10.63 C3.31 10.52, 3.01 10.38, 2.74 10.22 C2.47 10.07, 2.2 9.88, 1.96 9.68 C1.71 9.47, 1.49 9.24, 1.28 9 C1.08 8.76, 0.89 8.49, 0.73 8.22 C0.58 7.94, 0.44 7.65, 0.33 7.35 C0.22 7.06, 0.14 6.74, 0.08 6.43 C0.03 6.12, 0 5.8, 0 5.48 C0 5.16, 0.03 4.84, 0.08 4.53 C0.14 4.22, 0.22 3.9, 0.33 3.61 C0.44 3.31, 0.58 3.01, 0.73 2.74 C0.89 2.47, 1.08 2.2, 1.28 1.96 C1.49 1.71, 1.71 1.49, 1.96 1.28 C2.2 1.08, 2.47 0.89, 2.74 0.73 C3.01 0.58, 3.31 0.44, 3.61 0.33 C3.9 0.22, 4.22 0.14, 4.53 0.08 C4.84 0.03, 5.16 0, 5.48 0 C5.8 0, 6.12 0.03, 6.43 0.08 C6.74 0.14, 7.06 0.22, 7.35 0.33 C7.65 0.44, 7.94 0.58, 8.22 0.73 C8.49 0.89, 8.76 1.08, 9 1.28 C9.24 1.49, 9.47 1.71, 9.68 1.96 C9.88 2.2, 10.07 2.47, 10.22 2.74 C10.38 3.01, 10.52 3.31, 10.63 3.61 C10.74 3.9, 10.82 4.22, 10.88 4.53 C10.93 4.84, 10.95 5.32, 10.96 5.48 C10.97 5.64, 10.97 5.32, 10.96 5.48" stroke="#1e1e1e" stroke-width="2" fill="none"></path></g><g stroke-linecap="round" transform="translate(10.290813192190171 43.41710328015387) rotate(0 5.479515597999637 5.479515597999637)"><path d="M10.96 5.48 C10.96 5.8, 10.93 6.12, 10.88 6.43 C10.82 6.74, 10.74 7.06, 10.63 7.35 C10.52 7.65, 10.38 7.94, 10.22 8.22 C10.07 8.49, 9.88 8.76, 9.68 9 C9.47 9.24, 9.24 9.47, 9 9.68 C8.76 9.88, 8.49 10.07, 8.22 10.22 C7.94 10.38, 7.65 10.52, 7.35 10.63 C7.06 10.74, 6.74 10.82, 6.43 10.88 C6.12 10.93, 5.8 10.96, 5.48 10.96 C5.16 10.96, 4.84 10.93, 4.53 10.88 C4.22 10.82, 3.9 10.74, 3.61 10.63 C3.31 10.52, 3.01 10.38, 2.74 10.22 C2.47 10.07, 2.2 9.88, 1.96 9.68 C1.71 9.47, 1.49 9.24, 1.28 9 C1.08 8.76, 0.89 8.49, 0.73 8.22 C0.58 7.94, 0.44 7.65, 0.33 7.35 C0.22 7.06, 0.14 6.74, 0.08 6.43 C0.03 6.12, 0 5.8, 0 5.48 C0 5.16, 0.03 4.84, 0.08 4.53 C0.14 4.22, 0.22 3.9, 0.33 3.61 C0.44 3.31, 0.58 3.01, 0.73 2.74 C0.89 2.47, 1.08 2.2, 1.28 1.96 C1.49 1.71, 1.71 1.49, 1.96 1.28 C2.2 1.08, 2.47 0.89, 2.74 0.73 C3.01 0.58, 3.31 0.44, 3.61 0.33 C3.9 0.22, 4.22 0.14, 4.53 0.08 C4.84 0.03, 5.16 0, 5.48 0 C5.8 0, 6.12 0.03, 6.43 0.08 C6.74 0.14, 7.06 0.22, 7.35 0.33 C7.65 0.44, 7.94 0.58, 8.22 0.73 C8.49 0.89, 8.76 1.08, 9 1.28 C9.24 1.49, 9.47 1.71, 9.68 1.96 C9.88 2.2, 10.07 2.47, 10.22 2.74 C10.38 3.01, 10.52 3.31, 10.63 3.61 C10.74 3.9, 10.82 4.22, 10.88 4.53 C10.93 4.84, 10.95 5.32, 10.96 5.48 C10.97 5.64, 10.97 5.32, 10.96 5.48" stroke="#1e1e1e" stroke-width="2" fill="none"></path></g><g stroke-linecap="round"><g transform="translate(28.9997343815603 13.730716434903286) rotate(0 13.404918371806161 -0.47696888869757004)"><path d="M0 0 C2.36 -0.16, 9.67 -0.95, 14.13 -0.95 C18.6 -0.95, 24.7 -0.16, 26.81 0 M0 0 C2.36 -0.16, 9.67 -0.95, 14.13 -0.95 C18.6 -0.95, 24.7 -0.16, 26.81 0" stroke="#1e1e1e" stroke-width="2" fill="none"></path></g></g><mask></mask><g stroke-linecap="round"><g transform="translate(28.9997343815603 32.35220608874681) rotate(0 13.404918371806161 0.5600446425838186)"><path d="M0 0 C2.4 0.19, 9.94 1.12, 14.41 1.12 C18.88 1.12, 24.74 0.19, 26.81 0 M0 0 C2.4 0.19, 9.94 1.12, 14.41 1.12 C18.88 1.12, 24.74 0.19, 26.81 0" stroke="#1e1e1e" stroke-width="2" fill="none"></path></g></g><mask></mask><g stroke-linecap="round"><g transform="translate(28.9997343815603 49.177142917209096) rotate(0 13.404918371806161 0.09888957702210632)"><path d="M0 0 C2.54 0.03, 10.79 0.2, 15.25 0.2 C19.72 0.2, 24.88 0.03, 26.81 0 M0 0 C2.54 0.03, 10.79 0.2, 15.25 0.2 C19.72 0.2, 24.88 0.03, 26.81 0" stroke="#1e1e1e" stroke-width="2" fill="none"></path></g></g><mask></mask></svg>