<svg version="1.1" xmlns="http://www.w3.org/2000/svg" viewBox="0 0 89.59175568733679 87.20847569061152" width="268.77526706201036" height="261.62542707183457" filter="invert(93%) hue-rotate(180deg)">
  <!-- svg-source:excalidraw -->
  
  <defs>
    <style class="style-fonts">
      
    </style>
    
  </defs>
  <g stroke-linecap="round"><g transform="translate(34.07651618867902 48.033815253945136) rotate(0 10.719361654989378 -4.429577408639432)"><path d="M0.22 -0.09 C0.28 3.88, 2.8 19.68, 0.53 23.9 C-1.73 28.13, -11.07 30.04, -13.35 25.26 C-15.64 20.48, -11.65 0.17, -13.16 -4.77 C-14.67 -9.7, -26.37 0.96, -22.41 -4.36 C-18.44 -9.67, 2.3 -33.7, 10.62 -36.65 C18.94 -39.59, 24.9 -23.26, 27.54 -22.02 C30.18 -20.78, 24.92 -27.86, 26.45 -29.21 C27.98 -30.55, 35.21 -32.65, 36.72 -30.11 C38.23 -27.57, 34.04 -18.75, 35.5 -13.98 C36.97 -9.21, 45.74 -3.27, 45.51 -1.48 C45.29 0.31, 35.85 -7.86, 34.15 -3.24 C32.46 1.38, 37.76 21.51, 35.34 26.25 C32.93 30.99, 22.17 29.48, 19.67 25.21 C17.17 20.93, 23.8 4.71, 20.35 0.59 C16.91 -3.52, 2.48 0.7, -0.99 0.51 M-1.12 -1.18 C-1.2 2.9, 2.02 20.92, -0.18 24.98 C-2.37 29.03, -12.17 28.01, -14.3 23.17 C-16.44 18.32, -11.47 0.45, -12.99 -4.11 C-14.51 -8.67, -27.06 1.41, -23.42 -4.2 C-19.77 -9.81, 0.81 -35.1, 8.87 -37.77 C16.93 -40.44, 22.24 -21.66, 24.95 -20.22 C27.66 -18.78, 23.4 -27.78, 25.16 -29.15 C26.92 -30.51, 33.67 -30.89, 35.51 -28.42 C37.36 -25.94, 35.01 -18.4, 36.21 -14.27 C37.41 -10.14, 42.7 -5.34, 42.71 -3.64 C42.72 -1.94, 37.36 -8.96, 36.25 -4.07 C35.14 0.82, 38.89 20.88, 36.05 25.68 C33.21 30.48, 22.26 29.07, 19.19 24.73 C16.11 20.39, 20.88 4.01, 17.61 -0.38 C14.33 -4.77, 2.18 -1.68, -0.48 -1.63" stroke="#1e1e1e" stroke-width="2" fill="none"></path></g></g><mask></mask></svg>