<svg version="1.1" xmlns="http://www.w3.org/2000/svg" viewBox="0 0 58.86925769436846 59.08344493734688" width="176.60777308310537" height="177.25033481204065" filter="invert(93%) hue-rotate(180deg)">
  <!-- svg-source:excalidraw -->
  
  <defs>
    <style class="style-fonts">
      
    </style>
    
  </defs>
  <g stroke-linecap="round"><g transform="translate(21.418093481049482 46.117138361917796) rotate(0 7.584918488409187 -16.856672698801333)"><path d="M0 0 C0.58 -2.15, 1.51 -10.91, 3.51 -12.9 C5.51 -14.89, 10.23 -14.36, 12.01 -11.95 C13.8 -9.54, 11.91 -0.44, 14.23 1.56 C16.54 3.56, 24.03 3.73, 25.9 0.05 C27.76 -3.63, 28.34 -14.5, 25.41 -20.52 C22.48 -26.55, 13.93 -35.95, 8.3 -36.11 C2.67 -36.28, -5.19 -27.65, -8.36 -21.52 C-11.53 -15.39, -12.08 -3.33, -10.73 0.65 C-9.38 4.64, -2 2.11, -0.25 2.4 M0 0 C0.58 -2.15, 1.51 -10.91, 3.51 -12.9 C5.51 -14.89, 10.23 -14.36, 12.01 -11.95 C13.8 -9.54, 11.91 -0.44, 14.23 1.56 C16.54 3.56, 24.03 3.73, 25.9 0.05 C27.76 -3.63, 28.34 -14.5, 25.41 -20.52 C22.48 -26.55, 13.93 -35.95, 8.3 -36.11 C2.67 -36.28, -5.19 -27.65, -8.36 -21.52 C-11.53 -15.39, -12.08 -3.33, -10.73 0.65 C-9.38 4.64, -2 2.11, -0.25 2.4" stroke="#1e1e1e" stroke-width="2" fill="none"></path></g></g><mask></mask></svg>